<svg width="110" height="43" fill="none" xmlns="http://www.w3.org/2000/svg"><path d="M75.44 3.802l-.024-.236-.382.033.024.236.382-.033zm2.567 6.174l.008.13.269-.024c-.009-.081.024-.211.08-.374l-.024-.235c-.113.008-.227.178-.333.503zM67.99 17.751c-.016-.22-.698-1.072-2.047-2.575-.024-.276.439-.69 1.39-1.235l2.713-2.364c.609-.772.966-2.023 1.072-3.762l-.033-.398c-.105-1.202-.974-2.169-2.623-2.908-.975-.658-2.73-1.024-5.265-1.089-2.096.18-4.834.926-8.205 2.25a33.638 33.638 0 01-3.169 2l.016.202a.754.754 0 00.317-.138c.139-.016.22.049.228.179l.203-.106.097-.008.009.09c.008.105-.724.682-2.202 1.714l.114.21-.098.01-.244-.09c.009.073-.097.121-.3.138l.008.09.236.292c-.073.008-.187-.025-.342-.082-.341.033-.674.212-1.007.553l.138-.601c.496-2.137.837-4.03 1.015-5.671l-.024-.106a4.125 4.125 0 01-.983-.918 3.223 3.223 0 000-.43l-.024-.09-.098.025c-1.072 1.608-3.136 4.354-6.198 8.238-2.332 2.762-3.534 4.297-3.607 4.606-.95.983-1.406 1.576-1.357 1.78-.252.162-.358.324-.317.503-.073.016-.122-.008-.138-.081-.406.658-1.008 1.08-1.812 1.267l-.845.195c-.113.024-.17.106-.162.244l.024.105.317-.073.025.09-.715.276-1.268.292-.666.04c-.098.098.528-.007.284.05l-.828.195c-.504.113-.78.073-.829-.13l-.098.024c.017.09.025.154.009.211l-.05-.203-.665.154c-.05-.308-.95-1.43-2.698-3.363-.032-.374.585-.918 1.845-1.625L32.69 12.6c.796-1.023 1.267-2.664 1.422-4.923l-.049-.528c-.138-1.592-1.292-2.876-3.46-3.867-1.285-.87-3.592-1.332-6.922-1.405-2.763.235-6.37 1.218-10.806 2.933A41.324 41.324 0 018.71 7.442l.024.276c.106-.008.244-.065.414-.163.179-.016.277.065.293.228l.276-.155.138-.008.008.13c.008.13-.958.886-2.916 2.267l.154.244-.138.008-.3-.106c.007.081-.13.138-.415.163l.016.146.325.357c-.105.009-.252-.024-.439-.089-.633.057-1.25.512-1.86 1.373l.154.244c.529-.488.837-.731.927-.74l.032.399c-.09.008-.227.065-.414.162l.333.504c.629-.68 1.341-1.278 2.12-1.78.382.098.585.22.593.35l.293-.024c2.096-1.552 4.168-2.673 6.223-3.364l.024.276c-.382.569-.642.862-.78.878a.893.893 0 00.203.512c.033.349-.901 2.705-2.794 7.06C6.905 26.711 3.298 34.201.365 39.044c.008.097.065.227.17.39.724-.171 1.179-.35 1.374-.52l.154-.017.024.276.269-.024.276-.154c.008.081.097.122.284.105l.025.277c.024.268-.13.674-.455 1.234-.293.334-.61 1.032-.943 2.096l.008.13.268-.024c1.17-1.308 2.056-2.592 2.665-3.843 3.412-.999 6.012-1.982 7.815-2.949 1.812-.154 3.193-.633 4.136-1.422l-.017-.146-.682.203-.154.017-.017-.146c1.333-.204 2.25-.496 2.763-.902 2.591-1.999 4.55-3.412 5.873-4.25 2.722-1.998 4.493-3.948 5.297-5.84.152-.034.304-.069.455-.106.382-.016.593-.024.65-.04-.016-.074.016-.114.09-.13.609-.066.316.04.706-.05l1.024-.235c-.065.016-.09.049-.073.114l.154-.098a.24.24 0 01-.081-.016l.17-.04-.08.048c.113.016.235.008.373-.024l.073.3-4.655 7.401-1.032 1.292-.503 1.69.097-.024.504-.212-.163.659.049.194.138.17c-.065.017-.09.058-.073.13l.024.107.212-.05c.308-.267.438-.51.39-.73.333.056.552.08.666.048l.024.106c-.203.049-.309.211-.325.488l.024.105.114-.024c1.69-1.845 5.833-8.157 9.156-12.438-.105-.463 1.625-1.105 5.2-1.934l.113-.024c.13.56-.146 1.917-.828 4.07-.44 1.3-.65 2.015-.618 2.128-.569 1.73-.837 2.665-.804 2.811L39.4 33.374a37.911 37.911 0 00-1.884 6.719c.073-.017.186-.009.35.032l.178-.154c.016.073.065.097.138.08l-.073-.3.552-.016c.163-.04.3-.244.415-.617-.025-.56.089-.861.34-.927.342-1.332.553-1.998.626-2.023.317-1.324.553-2.08.707-2.266.48-1.722.829-2.608 1.056-2.665l.049.212-.35.901c-.609 2.706-1.226 4.842-1.852 6.41l.18.78.113-.024c1.51-3.25 3.688-9.684 6.523-19.303.082-.845.488-1.503 1.211-1.966l-.163-.17-.024-.09c.325-.073.552-.203.682-.382-.016-.073-.3-.179-.852-.325l1.413-6.06c.309-.277.488-.423.544-.423l.025.309a.75.75 0 00-.317.138l.268.382a8.685 8.685 0 011.592-1.365c.293.081.44.179.455.276l.212-.016c1.608-1.178 3.184-2.023 4.736-2.535l.016.203c-.284.43-.48.65-.585.658a.891.891 0 00.13.39c.025.268-.674 2.055-2.104 5.37-3.266 7.677-6.004 13.356-8.23 17.044.008.074.057.171.147.301.544-.13.893-.268 1.031-.398l.098-.008.016.203.227-.016.204-.106c.008.057.08.082.22.073l.015.22c.017.194-.097.503-.35.926-.235.252-.478.78-.738 1.584l.008.106.21-.017c.886-.99 1.56-1.966 2.024-2.924 2.591-.764 4.566-1.503 5.93-2.235 1.39-.121 2.438-.479 3.153-1.08l-.009-.106-.528.155-.113.008-.008-.106c1.007-.146 1.714-.373 2.096-.674 1.966-1.511 3.452-2.592 4.46-3.225 3.136-2.283 4.598-4.477 4.42-6.58zm-.536.138l.073.82c-.097.204-.203.31-.3.318l-.122-1.398c.227.081.34.163.35.26zM5.938 11.276l-.138.008-.024-.252.56-.048.009.13c-.09.008-.228.057-.407.162zM3.201 38.663c-.326-.146-.618-.203-.87-.18l-.032-.397c-.016-.154.073-.26.268-.3.178-.017.284.113.3.373.472-.577.732-.87.78-.877l.301.121c-.098.813-.35 1.227-.747 1.26zM32.456 8.059c-.139.016-.415-.414-.813-1.267l-.024-.252c.26-.024.528.398.812 1.267l.025.252zm-.39-3.03l-.114.268-3.973-1.657c2.648.089 4.013.552 4.086 1.389zM15.288 19.433l-.56.049-.025-.252.56-.049.025.252zm-.455-8.652l.138-.008.033.398c-.13.008-.3.203-.512.577l-.024-.277c.252-.3.382-.528.365-.69zm-1.178 2.778l.049.528-.138.008-.049-.528.138-.008zm-.617.991l.268-.024c-.024.439-.146.674-.366.69l-.138.009c.17-.293.252-.52.236-.675zm-.463 1.381l.154-.016.008.13-.252.423-.268.024-.008-.13c.268-.024.39-.162.366-.43zm-.455 1.243l-.082.666-.138.009-.056-.658.276-.017zM7.563 30.133c-.179.91-.374 1.373-.577 1.39l-.008-.13c-.049-.447.146-.87.585-1.26zm-.837 1.812l.009.13c.016.179-.066.284-.244.292l-.008-.13c-.017-.154.065-.251.243-.292zm-.243 3.762l.422-.041.016.146c-.105.008-.243.065-.414.163l-.268.024c-.016-.138.073-.244.244-.292zm12.023-3.713c-2.372 1.17-3.77 1.966-4.184 2.38-2.567.894-3.842 1.446-3.818 1.666-2.283.901-3.786 1.568-4.509 1.982-.17.016-.414-.049-.739-.195-.04-.463.17-.837.617-1.137.398-.033.78.024 1.146.178.422-.22 1.162-.463 2.21-.723l-.025-.276-.845.073c.106-.146.918-.528 2.446-1.145l.422-.041.008.13c-.723.065-1.121.276-1.21.658.016.17.114.244.292.227.544-.34.813-.544.804-.6 1.032-.196 3.884-1.69 8.555-4.477l.025.252c.008.122-.39.463-1.195 1.048zm-7.165 2.356a2.766 2.766 0 001.755-.813c.194-.016.3.057.308.228-.333.032-.975.308-1.909.845l-.138.008-.016-.268zm11.56-8.88l-3.582 2.835c-2.665 1.747-4.095 2.624-4.298 2.64-4.24 2.332-6.881 3.543-7.905 3.632l-.154.016c.13-.479 2.015-4.338 5.67-11.6 1.61-.139 4.144-.886 7.597-2.251l.845-.073c1.746-.155 3.054.187 3.915 1l.049.527c-.65 1.869-1.365 2.957-2.137 3.274zm-7.002-3.94l.576-.049.008.13-.576.049-.008-.13zm8.1-1.373l.422-.04c.39.186.593.349.609.495l.008.13c-.374.032-.723-.163-1.04-.585zm1.145-6.524c-.374.447-1.398 1.21-3.071 2.283-.553.049-2.608.845-6.166 2.405a1.126 1.126 0 00-.569-.098l-.024-.252c-.041-.511.186-1.153.69-1.933.276-1.462.577-2.3.91-2.502l2.965-6.67c-.032-.415.601-.731 1.901-.95l.423-.041.032.382c1.276-.195 2.072-.31 2.38-.334 2.357-.203 3.583.277 3.68 1.422l.269-.024-.057-.674.292-.025c.691.382 1.065.845 1.114 1.39.032.373-.171.836-.602 1.389-.178.016-.284-.114-.3-.374l-.293.024-.065.813c-1.194 1.787-2.063 2.705-2.6 2.754-.487.674-.788 1.007-.91 1.015zm1.82 4.672c-.244-.163-.44-.236-.585-.228l-.033-.398.268-.024.593.35c.024.186-.057.283-.244.3zm1.884 2.234c.26.105.415.219.447.325l-.13.032.008.008a.29.29 0 00-.081.017l-.195.154-.049-.536zm.179 1.12l-.024-.105.34-.081.025.106-.341.08zm.82.919c.35-.057.52-.081 1.17-.228l.025.106-1.235.284a1.59 1.59 0 00.04-.162zm1.203.512c-.52.049-.406-.017-1.235.17l-.024-.105 1.032-.333.495-.114.049.195c-.22.049-.057.049-.317.187zm1.097-.26c-.122.032-.22-.024-.276-.163l.316-.073c.138-.032.228.024.26.163l-.3.073zm2.973-3.201l-.024-.106.512-.121.048.194-.536.033zm3.177 19.481a.804.804 0 00.024-.325l.114-.024c.138-.032.219.016.252.146l.024.106-.414.097zm2.226-18.644l-.228-.041a6.449 6.449 0 01-.926.309l-.211.049c-.122.032-.22-.017-.268-.147l1.486-.341.488-.227.162.186c-.235.05-.406.122-.503.212zm1.145-.366l-.024-.106a.622.622 0 00.276-.178l1.056-.244.025.105c-.561.139-1.008.277-1.333.423zm.163-2.137c-.074.017-.17.082-.293.179-.016-.073-.162-.073-.439-.008-.048-.203.732-.487 2.348-.861l.228-.049.049.195c-1.138.333-1.771.52-1.893.544zm2.843-3.07c-.114 1.291-.569 2.023-1.373 2.21l-.024-.106-.715.276-.317.073a.797.797 0 01-.439-.008l-.065-.285c-.024-.105 1.008-1.535 3.104-4.281l.243.04c.09.374-.048 1.065-.414 2.08zm5.029-4.306l-.098.008-.016-.203.422-.04.009.105a1.373 1.373 0 00-.317.13zM47.63 31.392c-.244-.114-.463-.163-.65-.147l-.024-.309c-.008-.105.057-.178.195-.219.138-.016.22.081.235.293.35-.447.545-.675.585-.675l.22.09c-.081.617-.268.942-.56.967zM69.843 8.157c-.106.008-.31-.317-.626-.975l-.016-.203c.203-.017.414.3.625.95l.017.228zm-.293-2.324l-.097.211-3.006-1.259c2.006.065 3.046.414 3.103 1.048zM56.803 16.776l-.422.041-.016-.203.422-.033.016.195zm-.349-6.572l.114-.008.024.308c-.105.009-.236.155-.39.44l-.016-.204c.187-.236.276-.414.268-.536zm-.886 2.112l.033.398-.114.008-.032-.398.114-.008zm-.479.756l.211-.016c-.024.34-.113.52-.268.536l-.113.008c.121-.228.178-.406.17-.528zm-.341 1.04l.098-.008.008.105-.187.325-.212.016-.008-.105c.22-.017.317-.13.301-.333zm-.341.942l-.073.52-.098.008-.04-.512.21-.016zm-3.47 9.854c-.137.683-.283 1.032-.438 1.048l-.008-.089c-.024-.341.122-.666.447-.959zm-.641 1.373l.008.09c.016.146-.049.227-.195.235l-.008-.105c-.008-.106.057-.179.195-.22zm-.179 2.86l.325-.024.008.105a.937.937 0 00-.317.122l-.21.016c-.009-.113.056-.186.194-.219zm9.124-2.819c-1.788.886-2.852 1.487-3.185 1.796-1.95.682-2.917 1.105-2.9 1.275-1.73.69-2.868 1.186-3.404 1.503-.13.008-.317-.04-.561-.154-.032-.35.13-.634.471-.845.309-.025.601.016.87.13.325-.163.885-.341 1.681-.544l-.016-.204-.666.049c.081-.114.706-.406 1.868-.877l.325-.025.008.09c-.552.048-.86.21-.926.503.008.13.09.195.228.179.406-.268.6-.422.6-.471.78-.138 2.942-1.276 6.492-3.404l.016.203c.008.09-.292.35-.901.796zm-5.444 1.787a2.182 2.182 0 001.35-.609c.137-.016.218.049.226.179-.243.024-.723.227-1.446.617l-.113.009-.017-.196zm8.79-6.75l-2.705 2.177c-2.023 1.324-3.12 1.99-3.29 2.006-3.217 1.771-5.216 2.69-6.004 2.754l-.113.009c.097-.366 1.535-3.299 4.314-8.807 1.21-.106 3.127-.683 5.76-1.722l.658-.057c1.324-.114 2.315.146 2.965.771l.032.399c-.495 1.397-1.031 2.217-1.616 2.47zm-5.312-2.99l.422-.041.008.106-.422.04-.008-.105zm6.15-1.048l.325-.025c.3.146.454.277.463.382l.008.09c-.285.024-.553-.122-.797-.447zm.852-4.948c-.284.341-1.056.926-2.315 1.739-.422.04-1.982.641-4.68 1.811a1.064 1.064 0 00-.43-.056l-.016-.204c-.033-.39.138-.877.512-1.47.21-1.121.447-1.747.69-1.893l2.267-5.07c-.025-.3.455-.544 1.43-.73l.325-.025.024.309c.959-.155 1.56-.244 1.803-.268 1.788-.155 2.722.203 2.795 1.08l.211-.016-.04-.488.211-.016c.52.284.796.626.829 1.032.024.292-.122.65-.43 1.064-.139.016-.22-.081-.236-.292l-.212.016-.065.61c-.901 1.372-1.56 2.08-1.974 2.111-.365.496-.593.748-.699.756zm.951 3.38l-.024-.31.21-.015.456.276c.008.13-.057.203-.195.22-.195-.123-.341-.18-.447-.171zM27.41 35.486l-.21.049-.18.154c.033.13.114.179.252.146.138-.032.195-.113.163-.243l-.025-.106zm-.804-1.6l.024.105c.139-.032.195-.113.163-.243l-.024-.106c-.13.032-.187.114-.163.244zm5.72-13.608l.243-.057-.049-.211-.243.056.048.212zm73.718 6.19c-2.47.553-2.779.455-3.299.496l.016.203.228-.016.122-.008-.033-.025.268-.105c2.446-.269 2.73-.171 2.706-.447l-.008-.098zm-13.3 1.763l.017.203h.032l-.016-.203h-.033zm-1.527-5.354l-.22-.072c-.178.479-.267.763-.26.844l.009.09c.17-.009.325-.301.471-.861zm15.33 3.55l.017.204.357.065-.016-.203-.358-.065zm-16.809 2.056l-.552-.065-.098.211.009.106 3.29-.276-.016-.203-2.633.227zm-1.495-7.206l-.007-.106-.114.009-.203.13.113.194c.155-.016.228-.089.212-.227zm19.864 3.656l.154-.016c.09-.009.13-.082.122-.212l-.089-.195c-.561.05-.821.074-1.276.325l-.008-.105-.674.065c-.016-.203-.073-.309-.162-.3l-.35.032c-.406.032-.601.016-.804.17-.008-.073-.033-.105-.073-.105l-.39.032-.228.13c-.008-.073-.032-.106-.073-.106l-.138.122-.008-.105-.544-.04-.13.007.016.203.276.073.26-.016c.09.057.187.073.301.065l.227-.113.008.089c-1.275.317-1.267.26-2.145.406-.097-.065-.17-.097-.219-.09l-.016.017c-.098-.008-.154-.073-.162-.179l.454-.056c.033 0 .057.032.309.08.366-.178.382-.251.577-.267l-.016-.204c-1.251.244-.748.082-2.316.22l-.073.008-.016-.203c2.015-.244 1.341-.106 2.031-.3.008.072.032.105.073.105a.471.471 0 01.276-.138l.139-.008c.706-.057.942.08 2.339-.31l.008.09.228-.114.211-.016c-.016-.203.292-.235.398-.244l-.016-.219c-2.454.496-3.095.358-3.778.553l-.008-.09c-.642.114-.666.065-.829.073a.438.438 0 00-.203.13c-.008-.073-.032-.105-.081-.105-.024 0-.032.008-.041.008l-2.08.341c-.007-.057-.032-.09-.08-.081-1.081.227-.789.268-2.235.398a.68.68 0 00-.268.114c-.008-.057-.04-.09-.114-.082l-.885.074-.593.146c-.008-.057-.04-.09-.114-.082a4.74 4.74 0 01-.861.163h-.016c-.147.016.073-.04-.041-.09l-.179.106c-.26.025-.121-.016-1.015-.008-1.568.195-1.397.22-1.568.227l-.585-.04c.008.057-.024.098-.09.098-.666-.09-1.007-.196-1.015-.317.09-.634.244-.96.463-.975l.114-.008-.098.21.114-.007c.211-.114.309-.22.3-.317l-.016-.22-.21.017-.017-.203a.731.731 0 01.065-.407l.48-.771.016.203.227-.017-.016-.203-.13-.186c.17-.147.3-.228.406-.236l-.008-.106-.309.025-.024-.309c.617-1.284.91-2.031.893-2.242l.22.09c.138-.009.203-.09.195-.237l-.212.017-.008-.09a.775.775 0 01.082-.43c.333-.35.487-.699.455-1.064.065-.009.097.024.105.097.285-.162.504-.593.666-1.308.504-.91 1.219-2.73 2.153-5.451 1.788-4.81 1.715-5.321 1.966-6.459l-.21.016a.736.736 0 01-.082.415c-.146-.057-.26-.09-.341-.081l-.008-.09c-.033-.414.138-.91.528-1.495l.097-.008.179.699.211-.016c-.008-.05.049-.325.163-.837-.009-.106-.09-.17-.252-.179l-.203.13c-.016-.146-.009-.528.016-1.137l-.106.008c-.179-.179-.268-.325-.276-.447l-1.162.114a1.073 1.073 0 00-.13-.358c-.008-.105.252-.211.788-.317l.236.09.22-.13c.007.073.048.105.13.097l.219-.13c.008.073.048.106.13.098l.105-.008-.016-.236c-.163.016-.593.016-1.275-.008l-.22.146-.008-.13c-5.451.447-8.546.699-9.286.772-.097.008-.48 0-1.153-.016.008.089-.074.138-.236.154l-.236-.106-.796.204c-.187.016-.504.008-.942-.041a.811.811 0 01-.447.17 157.75 157.75 0 002.331-.146c-.121.098-.308.155-.568.18a.78.78 0 01-.463-.082c-.179.081-.756.211-1.722.406l-.236-.09-3.802.586a.949.949 0 00-.512-.082c-.203.017-.544.09-1.016.22l-1.836.763.139.228c.089-.008.219-.057.373-.146l.65.056-.081.61c-.601.268-.95.666-1.048 1.17-.902.398-1.349.682-1.349.853l.008.105.138-.008.244-.13.285.341.04.472c.016.146-1.503 3.339-4.541 9.578-2.632 6.012-4.013 9.302-4.143 9.895-.902.252-1.422.617-1.576 1.105.016.154.284.26.804.3l.024.236-.236.39.041.471c.025.244.683.43 1.974.56-.008-.08.033-.13.122-.137.025.292-.057.86-.244 1.706l.139-.008c.536-.731.788-1.235.763-1.511l.114-.008c.13-.009.268.138.43.454-.162.065-.73 1.357-1.706 3.884l.139.227.138-.008c1.194-3.022 1.941-4.696 2.25-5.013 1.568-.138 4.281-.414 8.132-.828l.244-.146c.008.08.057.122.146.113l.252-.024.244-.146c.008.081.057.122.146.113l2.916-.251c.773-.065 1.138-.3 1.106-.699-.009-.105.446-.228 1.364-.357.09-.009.22.016.398.073-.008-.073.455-.147 1.381-.228.025-.487.18-.747.456-.772l-.025-.235c-.26.024-.552.09-.894.203-.609-.033-.999-.081-1.161-.138-.163.09-.285.138-.374.146l-2.031.065-.244.13c-.008-.073-.057-.106-.146-.098l-.114.009-.26.13c-.008-.074-.219-.13-.642-.187l-.26.154-.503.04-.008-.13c2.616-.284 3.907-.641 3.875-1.064.17-.016.26.065.276.236l.764-.195-.025-.236-6.263.171c.008.081-.033.13-.122.138l-.764-.065a.92.92 0 00-.487.17l-.284-.105c-.789.065-1.374.163-1.764.285-.536-.041-1.129-.033-1.787.024l-1.405.122-.65-.073c-.033-.415.772-2.454 2.429-6.11.48-1.235.918-2.006 1.34-2.299.09-.008.22.025.398.098l1-.342.511.082c.862-.073 1.86-.317 3.006-.74.285-.024.496-.008.65.057l.764-.178 2.275-.195c.966-.082 2.014-.293 3.152-.642l-.024-.236c-.423.04-.642-.032-.659-.203-.024-.317-.332-.447-.926-.398l-.024-.236.626-.178 1.64-.138-.024-.236c-.065.008-.398 0-1.015-.024l-.025-.252.634-.057c.17-.016.244-.098.228-.26-.853.024-1.284-.016-1.292-.13-5.947.292-8.928.35-8.945.162-.09.009-.211.065-.374.163l-.154-.244c1.576-3.347 2.502-5.037 2.77-5.061.008.13-.057.341-.203.625l.008.106.252-.024c.626-1.495 1.154-2.267 1.593-2.3 1.868-.162-.26-.284 3.737-.91.162.074.276.106.357.098 1.568-.317 3.753-.65 6.556-.991l-.016-.236-1.495.138-.016-.235a.813.813 0 00.447-.17l.008.13c.081-.009.195-.066.341-.163.26-.025.455 0 .593.073a8.65 8.65 0 011.251-.252l.935-.09c.227-.145.333-.275.325-.397l-.008-.106a2.95 2.95 0 01-.821-.049c-.008-.13.057-.22.211-.26l1.739-.162.796-.203c.008.089.049.122.114.122.08-.009.195-.065.34-.163.041.008.09.008.13.016-.105.22-.227.537-.349.95l-.227.017a.993.993 0 00-.13-.414l-.114.008c-2.112 5.882-3.054 8.62-5.004 13.136-.358 1.154-.658 1.796-.918 1.934.008.13.09.195.227.179.049.569-.081 1.13-.398 1.681-.902 2.6-1.503 4.022-1.812 4.282l.203 1.227c.009.13-.056.203-.194.219l-.212.016c-.032-.341-.154-.503-.373-.479l-.114.008c-.276.43-.487.926-.626 1.503l.212-.016c.284-.187.414-.406.39-.658l.422-.041.244.09c-.195.308-.285.552-.268.739l.113.195-.276.65.008.105c.244-.024.512.057.796.228.195-.016.407-.106.642-.26.244-.025 1.154-.033 2.722-.033l.788-.268c.959-.008 1.113.017 1.942-.057l.34-.032.18-.122.008.106c.869-.074.926-.017 1.608.064l.008.106-.479.04.016.204a.69.69 0 00.382-.146c.122-.008.195.056.203.203a2.86 2.86 0 00-.658.146l-.211-.073c-.333.09-.26.114-.488.13l-.333-.065c.008.057-.024.097-.08.097.007.13.08.195.202.187l.341-.032 1.78-.155.674-.146c.008.057.032.09.09.081l.324-.121.61-.05c.47-.04.463-.072 1.486-.235-.008-.065.016-.09.065-.097l.008.089c1.666-.284 1.771-.3 2.039-.39l.025.049c.414-.098.178-.073.292-.154.009.073.033.105.073.105l.293-.024-.016-.22-.593-.008-.008-.016c-.025.008-.041.008-.066.016h-.081v.017c-.398.08-.406.024-.666.048l-1.487.082-.008-.106.829-.114.3-.024.171-.122.008.106c1.17-.098 1.584.194 6.995-.96.292-.024.268-.267.455-.771a.504.504 0 01-.284-.065c-.447.17-.683.09-1.544.228-.073.008-.13-.057-.154-.187l-.008-.09.828.025c.155-.017.455-.041.902-.293 0 .073-.163.114-.065.106zm-40.003.642l-.382.032c-.016-.154.187-.74.61-1.738l.251-.025c.008.236-.146.813-.479 1.73zm.463-1.852l-.008-.106c-.008-.13.073-.22.252-.26l.008.105c.008.155-.073.244-.252.26zm5.078 3.923l.008.106-.634.057-.008-.106.634-.057zm-.764-.065c.008.13-.187.277-.61.423l-.78-.057-.251.024-.024-.235 1.665-.155zm5.134-23.633l-.382.033-.007-.13c-.009-.13.064-.22.227-.26l.138-.008.26.105c.008.155-.065.244-.236.26zm5.81-1.137l.121-.008.016.235-.35.033c-.007-.13.058-.22.212-.26zm-1.463.512l-.577-.065-.008-.106c.755-.065 1.007-.146 1.47-.276.008.09.09.122.236.106l.016.235-.227.025a.781.781 0 01-.463-.082.993.993 0 01-.447.163zm.723 2.104l-.008-.106.934-.09.008.107-.934.089zm1-.813l-.009-.13.455-.04.008.13-.455.04zm.105-1.592l-.122.008.106-.252 1.04-.097.008.13a6.258 6.258 0 00-1.032.211zm.528 2.242L84.7 5.03l.455-.04c.155-.017.236.056.244.219l-.682.056zm2.754-3.753l-.585.163-.106.008a5.974 5.974 0 01-1.056-.025c.756-.048 1.479-.105 1.747-.146zm-.626 2.6l.008.105-.804.074-.008-.106.804-.073zm1.316.625c-.008-.097-.162-.162-.479-.195l-.804.228-.618.024c-.138-.097-.21-.162-.219-.211l.715.04 1.609-.26.82.033.008.13c-.406.04-.747.114-1.032.211zM96.441 2.6c.097.008.162.008.187.008.284-.276.601-.496.966-.65-.292 1.284-.747 2.234-1.372 2.852l-.456-.277c.382-.967.61-1.608.675-1.933zm-1.397 2.396l.113-.008c-.154.293-.292.447-.406.455l-.024-.309c.073 0 .178-.048.317-.138zm-.902 2.153c.219-.877.43-1.373.625-1.503l.008.106c-.113.812-.292 1.243-.528 1.275l.041.512c-.195.276-.284.488-.276.65l-.114.008-.065-.707c.13-.016.236-.13.309-.34zm-.35 1.17c.008.122-.073.406-.235.845l-.114.008-.024-.309c.154-.357.284-.536.373-.544zm-6.556 19.027l-.008-.09.211-.016.025.309c-.114.008-.195-.057-.228-.203zm9.367.244c-.008-.074-.04-.106-.113-.098l-.528.049-.008-.106h.048l1.251-.105.008.105c-.365.016-.585.073-.658.155zm-.625-.26c.049.024.024.048 0 .064-.024-.007-.057-.032 0-.064zm.065-1.463l-.699.057-.008-.106.634-.056.552-.139c.008.065.04.09.114.082.658-.114.593-.146.91-.17.105-.01.17.056.178.186l-1.681.146zm2.445-.211c-.39-.04-.414-.073-.69-.049l-.008-.09.625-.056.008.09c-.065.008.17.024.065.105zm.049-.114l-.008-.09.341-.032.008.09-.341.032zm.755-.065l-.008-.09a.591.591 0 00.244-.13c.17-.015.26.098.276.228l-.512-.008zm.967-.122l-.008-.105.414-.033.009.106-.415.032zm.577-.049c-.008-.121.041-.194.146-.21l.138.178c-.008-.057.017-.09.065-.097l.106.195-.455-.066zm-6.134 2.65l-.016-.204-.065.008.016.203.065-.008zm14.274-3.697c.065-.041.098-.082-.056-.106-.074.081.081.106-.082.114l.008.073c.017-.016.057-.04.09-.065l-.09.073v.008l-.17.22.341-.122h.041l-.017-.204-.065.009zm.593.463l-.065.008.017.203.479-.04c-.008-.13-.325-.171-.431-.171zm-.739-.358l.008-.008v-.008s-.008.008-.008.016z" fill="#000"/><path d="M77.642 9.326l.008.13.268-.024c-.008-.081.025-.211.081-.374l-.024-.235c-.114.008-.227.179-.333.503zm-2.567-6.174l-.024-.235-.382.032.024.236.382-.033zm-7.45 13.95c-.016-.22-.698-1.073-2.047-2.576-.025-.276.439-.69 1.39-1.235l2.712-2.364c.61-.772.967-2.023 1.073-3.761l-.033-.399c-.105-1.202-.975-2.169-2.624-2.908-.975-.658-2.73-1.024-5.264-1.089-2.096.179-4.834.926-8.205 2.25a33.698 33.698 0 01-3.169 2l.016.202a.756.756 0 00.317-.138c.138-.016.22.05.228.179l.203-.106.097-.008.008.09c.009.105-.723.682-2.201 1.714l.114.211-.098.008-.244-.09c.008.074-.097.123-.3.139l.008.09.235.292c-.073.008-.186-.025-.34-.082-.342.033-.675.212-1.008.553l.138-.601c.496-2.137.837-4.03 1.016-5.67l-.025-.107a4.123 4.123 0 01-.983-.918 3.222 3.222 0 000-.43l-.024-.09-.098.025c-1.072 1.608-3.136 4.354-6.198 8.238-2.332 2.762-3.535 4.297-3.608 4.606-.95.983-1.405 1.576-1.356 1.78-.252.162-.358.324-.317.503-.073.016-.122-.008-.138-.081-.407.658-1.008 1.08-1.812 1.267l-.845.195c-.114.024-.17.106-.162.244l.024.105.317-.073.024.09-.715.276-1.267.292-.666.04c-.098.098.528-.007.284.05l-.829.195c-.503.113-.78.073-.828-.13l-.098.024c.017.09.025.154.008.211l-.048-.203-.667.155c-.048-.31-.95-1.43-2.697-3.364-.032-.373.585-.918 1.845-1.625l3.558-3.127c.796-1.024 1.267-2.665 1.422-4.924l-.05-.528c-.137-1.592-1.29-2.876-3.46-3.867-1.284-.869-3.59-1.332-6.922-1.405-2.762.235-6.37 1.218-10.805 2.933a41.323 41.323 0 01-4.168 2.632l.025.276c.105-.008.244-.065.414-.162.179-.017.276.064.293.227l.276-.154.138-.009.008.13c.008.13-.959.886-2.917 2.267l.155.244-.138.008-.3-.106c.007.082-.13.138-.415.163l.016.146.325.358c-.106.008-.252-.025-.439-.09-.633.057-1.25.512-1.86 1.373l.154.244c.528-.488.837-.731.926-.74l.033.399c-.09.008-.227.065-.414.162l.333.504c.629-.68 1.341-1.278 2.12-1.78.382.098.585.22.593.35l.293-.024c2.096-1.552 4.167-2.673 6.223-3.364l.024.276c-.382.569-.642.862-.78.878a.893.893 0 00.203.512c.033.35-.902 2.705-2.794 7.06C6.54 26.062 2.933 33.553 0 38.394c.008.098.065.228.17.39.724-.17 1.179-.349 1.374-.52l.154-.016.024.276.268-.024.277-.154c.008.081.097.122.284.105l.024.277c.025.268-.13.674-.455 1.234-.292.334-.609 1.032-.942 2.097l.008.13.268-.025c1.17-1.308 2.056-2.592 2.665-3.843 3.412-.999 6.012-1.982 7.815-2.949 1.812-.154 3.193-.633 4.136-1.421l-.017-.147-.682.203-.155.017-.016-.146c1.332-.203 2.25-.496 2.762-.902 2.592-1.999 4.55-3.412 5.874-4.25 2.722-1.998 4.493-3.947 5.297-5.84.146-.033.293-.065.455-.106.382-.016.593-.024.65-.04-.016-.074.016-.114.09-.13.608-.066.316.04.706-.05l1.024-.235.17-.04-.08.048a.998.998 0 00.373-.024l.073.3-4.655 7.401-1.032 1.292-.504 1.69.098-.024.503-.212-.162.659.049.194.138.171c-.065.016-.09.057-.073.13l.024.106.211-.05c.31-.267.44-.51.39-.73.333.056.553.081.667.049l.024.105c-.203.049-.309.211-.325.488l.024.105.114-.024c1.69-1.845 5.833-8.157 9.156-12.438-.106-.463 1.625-1.105 5.2-1.934l.113-.024c.13.56-.146 1.917-.829 4.07-.438 1.3-.65 2.015-.617 2.129-.569 1.73-.837 2.664-.804 2.81l-1.268 4.152a37.892 37.892 0 00-1.884 6.719c.073-.017.187-.008.349.032l.179-.154c.016.073.065.097.138.08l-.073-.3.552-.016c.163-.04.3-.244.414-.617-.024-.56.09-.861.342-.927.34-1.332.552-1.998.625-2.022.317-1.325.553-2.08.707-2.267.48-1.722.829-2.608 1.056-2.665l.049.211-.35.902c-.609 2.706-1.226 4.842-1.852 6.41l.179.78.114-.024c1.51-3.25 3.688-9.684 6.523-19.303.082-.845.488-1.503 1.21-1.966l-.162-.17-.024-.09c.325-.073.553-.203.682-.382-.016-.073-.3-.179-.853-.325l1.414-6.06c.309-.277.487-.423.544-.423l.025.309a.755.755 0 00-.317.138l.268.382a8.702 8.702 0 011.592-1.365c.293.081.439.179.455.276l.211-.016c1.609-1.178 3.185-2.023 4.737-2.535l.016.203c-.284.43-.48.65-.585.658a.884.884 0 00.13.39c.024.268-.674 2.056-2.104 5.37-3.266 7.677-6.004 13.356-8.23 17.045.008.073.057.17.146.3.545-.13.894-.268 1.032-.398l.098-.008.016.203.227-.016.204-.106c.008.057.08.081.219.073l.016.22c.016.195-.097.503-.35.926-.235.252-.478.78-.738 1.584l.008.106.21-.017c.886-.99 1.56-1.966 2.024-2.924 2.591-.764 4.566-1.503 5.93-2.235 1.39-.121 2.437-.479 3.152-1.08l-.008-.106-.528.155-.114.008-.008-.106c1.008-.146 1.715-.373 2.096-.674 1.966-1.511 3.453-2.591 4.46-3.225 3.136-2.283 4.599-4.477 4.42-6.58zm-.536.137l.073.82c-.097.204-.203.31-.3.318l-.122-1.398c.227.082.34.163.349.26zM5.573 10.626l-.138.008-.024-.251.56-.05.008.13c-.089.009-.227.058-.406.163zM2.835 38.013c-.325-.147-.617-.203-.869-.18l-.032-.397c-.017-.154.073-.26.268-.3.178-.017.284.113.3.373.471-.577.731-.87.78-.877l.3.122c-.097.812-.349 1.226-.747 1.259zM32.09 7.409c-.138.016-.414-.414-.812-1.267l-.025-.252c.26-.024.529.398.813 1.267l.024.252zm-.39-3.03l-.113.268-3.973-1.657c2.648.089 4.013.552 4.086 1.389zM14.924 18.783l-.56.049-.025-.252.56-.049.025.252zm-.455-8.652l.138-.008.033.398c-.13.008-.3.203-.512.577l-.024-.277c.251-.3.381-.528.365-.69zm-1.178 2.778l.049.528-.138.008-.049-.528.138-.008zm-.617.991l.268-.024c-.025.439-.146.674-.366.69l-.138.009c.17-.293.252-.52.236-.675zm-.463 1.381l.154-.016.008.13-.252.423-.268.024-.008-.13c.268-.024.39-.162.365-.43zm-.455 1.244l-.082.666-.138.008-.057-.658.277-.016zM7.198 29.483c-.179.91-.374 1.372-.577 1.389l-.008-.13c-.049-.447.146-.87.585-1.26zm-.837 1.811l.008.13c.017.179-.065.285-.243.292l-.009-.13c-.016-.154.065-.251.244-.292zm-.244 3.762l.423-.041.016.146c-.106.008-.244.065-.414.163l-.268.024c-.016-.138.073-.244.243-.292zm12.024-3.713c-2.372 1.17-3.77 1.966-4.184 2.38-2.567.894-3.843 1.446-3.818 1.666-2.283.901-3.786 1.567-4.509 1.982-.17.016-.414-.049-.74-.195-.04-.463.171-.837.618-1.138a2.4 2.4 0 011.146.18c.422-.22 1.161-.464 2.21-.724l-.025-.276-.845.073c.106-.146.918-.528 2.446-1.145l.422-.04.008.13c-.723.064-1.121.275-1.21.657.016.17.113.244.292.227.544-.34.812-.544.804-.6 1.032-.196 3.884-1.69 8.555-4.477l.024.252c.008.122-.39.463-1.194 1.048zm-7.165 2.356a2.766 2.766 0 001.754-.813c.195-.016.301.057.31.228-.334.032-.976.309-1.91.845l-.138.008-.016-.268zm11.56-8.88l-3.582 2.844c-2.665 1.746-4.095 2.624-4.306 2.64-4.24 2.332-6.881 3.542-7.905 3.631l-.154.017c.13-.48 2.014-4.338 5.67-11.602 1.609-.138 4.143-.885 7.596-2.25l.845-.073c1.747-.154 3.055.187 3.916 1l.049.527c-.642 1.86-1.357 2.95-2.129 3.266zm-7.003-3.94l.577-.049.008.13-.577.049-.008-.13zm8.1-1.373l.422-.04c.39.186.593.349.61.495l.008.13c-.374.032-.723-.163-1.04-.585zm1.146-6.524c-.374.447-1.398 1.21-3.071 2.283-.553.049-2.608.845-6.167 2.405a1.127 1.127 0 00-.568-.098l-.025-.251c-.04-.512.187-1.154.691-1.934.276-1.462.577-2.3.91-2.502l2.965-6.67c-.032-.414.601-.731 1.901-.95l.423-.041.032.382c1.276-.195 2.072-.309 2.38-.333 2.357-.204 3.583.276 3.68 1.421l.269-.024-.057-.674.293-.025c.69.382 1.064.845 1.112 1.39.033.373-.17.836-.6 1.389-.18.016-.285-.114-.301-.374l-.293.024-.065.813c-1.194 1.787-2.063 2.705-2.6 2.754-.487.674-.787 1.007-.91 1.015zm1.82 4.672c-.244-.163-.44-.236-.586-.228l-.032-.398.268-.024.593.35c.024.186-.057.284-.244.3zm1.884 2.234c.26.105.415.22.447.325l-.13.032.008.008a.289.289 0 00-.081.017l-.195.154-.049-.536zm.179 1.121l-.024-.106.34-.08.025.105-.341.081zm.82.918c.35-.057.52-.081 1.17-.227l.025.105-1.235.285c.016-.058.032-.114.04-.163zm1.203.512c-.52.049-.406-.017-1.235.17l-.024-.105 1.04-.333.495-.114.049.195c-.228.049-.065.049-.325.187zm1.097-.26c-.122.032-.22-.024-.277-.163l.317-.073c.138-.032.228.025.26.163l-.3.073zm2.973-3.201l-.025-.106.513-.122.048.195-.536.033zm3.176 19.481a.802.802 0 00.025-.325l.114-.024c.138-.032.219.017.251.147l.025.105-.414.097zm2.227-18.644l-.228-.04a6.424 6.424 0 01-.926.308l-.211.049c-.122.032-.22-.017-.269-.147l1.487-.34.488-.228.162.186c-.235.05-.406.122-.504.212zm1.145-.366l-.024-.106a.62.62 0 00.276-.178l1.056-.244.024.106c-.56.138-1.007.276-1.332.422zm.162-2.137c-.073.017-.17.082-.292.18-.016-.074-.162-.074-.439-.009-.049-.203.731-.487 2.348-.861l.228-.049.048.195c-1.137.333-1.77.52-1.893.544zm2.844-3.07c-.114 1.291-.569 2.022-1.373 2.21l-.024-.106-.715.276-.317.073a.798.798 0 01-.439-.008l-.065-.285c-.024-.105 1.008-1.535 3.104-4.28l.243.04c.09.373-.048 1.064-.414 2.08zm5.029-4.306l-.098.008-.016-.203.423-.04.007.105a1.368 1.368 0 00-.316.13zm-2.072 20.806c-.244-.114-.463-.163-.65-.147l-.024-.308c-.008-.106.057-.18.195-.22.138-.016.22.081.235.293.35-.447.545-.674.585-.674l.22.089c-.082.617-.268.942-.561.967zM69.477 7.507c-.105.008-.308-.317-.625-.975l-.016-.203c.203-.017.414.3.625.95l.016.228zm-.292-2.324l-.098.211-3.005-1.259c2.006.065 3.046.415 3.103 1.048zM56.438 16.126l-.422.041-.017-.203.423-.04.016.202zm-.35-6.572l.114-.008.025.308c-.106.009-.236.155-.39.44l-.016-.204c.187-.236.276-.414.268-.536zm-.885 2.112l.033.398-.114.008-.032-.398.113-.008zm-.48.756l.212-.016c-.024.34-.114.52-.268.536l-.114.008c.122-.227.18-.406.17-.528zm-.34 1.04l.097-.008.009.105-.188.325-.21.016-.009-.105c.22-.017.317-.13.3-.333zm-.341.942l-.074.52-.097.008-.04-.512.21-.016zm-3.47 9.855c-.137.682-.284 1.031-.438 1.047l-.008-.089c-.025-.341.122-.666.447-.958zm-.641 1.373l.008.089c.016.146-.049.227-.195.235l-.008-.105c-.008-.106.057-.179.195-.22zm-.179 2.86l.325-.025.008.105a.937.937 0 00-.317.122l-.21.017c-.009-.114.056-.187.194-.22zm9.123-2.82c-1.787.886-2.851 1.487-3.184 1.796-1.95.682-2.917 1.104-2.9 1.275-1.731.69-2.868 1.186-3.404 1.503-.13.008-.317-.04-.561-.154-.033-.35.13-.634.471-.845.309-.024.601.016.87.13.324-.163.885-.341 1.681-.545l-.016-.203-.658.057c.081-.114.706-.406 1.868-.877l.325-.025.008.09c-.552.049-.86.211-.926.504.008.13.09.194.228.178.406-.268.6-.422.6-.47.78-.139 2.942-1.276 6.492-3.405l.016.203c0 .081-.3.341-.91.788zm-5.443 1.787a2.181 2.181 0 001.349-.609c.138-.008.22.049.227.179-.244.024-.723.227-1.446.617l-.113.008-.017-.195zm8.79-6.75l-2.705 2.177c-2.023 1.324-3.12 1.99-3.29 2.006-3.217 1.771-5.216 2.69-6.004 2.754l-.114.008c.098-.365 1.536-3.298 4.314-8.806 1.21-.106 3.128-.682 5.76-1.722l.658-.057c1.325-.114 2.316.146 2.966.771l.032.399c-.495 1.397-1.032 2.217-1.616 2.47zm-5.313-2.99l.423-.04.008.105-.423.04-.008-.105zm6.15-1.048l.325-.025c.3.146.455.276.463.382l.008.09c-.284.024-.552-.122-.796-.447zm.853-4.948c-.284.341-1.056.926-2.315 1.739-.422.04-1.982.642-4.68 1.811a1.067 1.067 0 00-.43-.057l-.016-.203c-.033-.39.138-.877.512-1.47.21-1.121.446-1.747.69-1.893l2.267-5.07c-.025-.3.455-.544 1.43-.73l.325-.025.024.309c.959-.155 1.56-.244 1.803-.268 1.788-.155 2.722.203 2.795 1.08l.211-.016-.04-.488.21-.016c.52.284.797.626.83 1.032.024.292-.122.65-.431 1.064-.138.016-.22-.081-.236-.292l-.21.016-.066.61c-.902 1.372-1.56 2.079-1.974 2.112-.366.495-.593.747-.699.755zm.95 3.38l-.023-.309.21-.016.456.276c.008.13-.057.203-.195.22-.195-.122-.341-.18-.447-.171zM27.046 34.836l-.211.049-.179.154c.033.13.114.179.252.146.138-.032.195-.113.163-.243l-.025-.106zm-.804-1.6l.024.105c.138-.032.195-.113.163-.243l-.025-.106c-.13.032-.187.114-.162.244zm5.752-10.805l.154-.098c-.032 0-.057-.008-.081-.016-.057.016-.081.057-.073.114zm-.033-2.803l.244-.057-.049-.211-.244.057.05.21zm57.413 8.205l-.552-.065-.098.211.008.106 3.29-.276-.016-.203-2.632.227zm3.006-.252l.016.203h.033l-.016-.203h-.033zm13.803-1.803l.016.203.358.065-.017-.203-.357-.065zm-.504.04c-2.469.553-2.778.455-3.298.496l.016.203.228-.016.122-.008-.033-.025.268-.105c2.446-.268 2.73-.17 2.706-.447l-.009-.098zm-14.826-3.59l-.22-.073c-.178.479-.267.763-.26.844l.009.09c.17-.008.325-.3.471-.861zm-2.974-1.6l-.008-.107-.113.009-.204.13.114.195c.155-.017.228-.09.212-.228zm6.46 6.677l-.017-.203-.065.008.016.203.065-.008zm13.404-3.022l.154-.016c.09-.008.13-.081.122-.212l-.089-.195c-.561.05-.821.074-1.276.326l-.008-.106-.674.065c-.016-.203-.073-.309-.163-.3l-.349.032c-.406.032-.601.016-.804.17-.008-.073-.033-.105-.073-.105l-.39.032-.228.13c-.008-.073-.032-.105-.073-.105l-.138.121-.008-.105-.544-.04-.13.008.016.203.276.073.26-.017a.473.473 0 00.301.065l.227-.113.008.089c-1.275.317-1.267.26-2.145.406-.097-.065-.17-.097-.219-.09l-.016.017c-.098-.008-.155-.073-.163-.179l.455-.057c.033 0 .057.033.309.082.366-.179.382-.252.577-.268l-.016-.204c-1.252.244-.748.082-2.316.22l-.073.008-.016-.203c2.015-.244 1.34-.106 2.031-.3.008.072.032.105.073.105a.473.473 0 01.276-.138l.138-.008c.707-.057.943.08 2.34-.309l.008.09.228-.114.211-.017c-.016-.203.292-.235.398-.244l-.016-.219c-2.454.496-3.096.358-3.778.553l-.008-.09c-.642.114-.666.065-.829.073a.428.428 0 00-.203.13c-.008-.073-.032-.105-.081-.105-.025 0-.033.008-.041.008l-2.08.341c-.008-.057-.032-.09-.08-.081-1.081.227-.789.268-2.235.398a.681.681 0 00-.268.114c-.008-.057-.04-.09-.114-.082l-.885.074-.593.146c-.009-.057-.04-.09-.114-.081-.333.089-.626.146-.861.162h-.016c-.147.016.073-.04-.041-.09l-.179.106c-.26.025-.122-.016-1.015-.008-1.568.195-1.398.22-1.568.228l-.585-.041c.008.057-.025.098-.09.098-.666-.09-1.007-.195-1.015-.317.09-.634.244-.959.463-.975l.114-.008-.098.211.114-.008c.211-.114.309-.22.3-.317l-.016-.22-.211.017-.016-.203a.73.73 0 01.065-.406l.48-.772.015.203.228-.017-.016-.203-.13-.186c.17-.147.3-.228.406-.236l-.008-.106-.309.025-.024-.309c.617-1.284.91-2.031.893-2.242l.22.09c.138-.009.203-.09.195-.236l-.212.016-.008-.09a.771.771 0 01.082-.43c.333-.35.487-.699.454-1.064.066-.009.098.024.106.097.285-.162.504-.593.666-1.308.504-.91 1.219-2.73 2.153-5.451 1.788-4.81 1.714-5.321 1.966-6.459l-.211.016a.73.73 0 01-.081.415c-.147-.057-.26-.09-.341-.081l-.009-.09c-.032-.414.138-.91.528-1.495l.098-.008.179.699.21-.016c-.007-.049.05-.325.163-.837-.008-.106-.089-.17-.251-.179l-.203.13c-.017-.146-.009-.528.016-1.137l-.106.008c-.179-.179-.268-.325-.276-.447L95.97.902a1.067 1.067 0 00-.13-.358c-.008-.105.252-.211.788-.316l.236.089.22-.13c.007.073.048.105.13.097l.218-.13c.009.074.05.106.13.098l.106-.008-.016-.236c-.163.016-.593.016-1.276-.008l-.22.146-.007-.13c-5.451.447-8.547.699-9.286.772-.098.008-.48 0-1.153-.016.007.09-.074.138-.236.154L85.238.82l-.796.204c-.187.016-.504.008-.942-.041a.81.81 0 01-.447.17c-.098.009 1.162-.064 2.331-.146-.121.098-.308.155-.568.18a.782.782 0 01-.463-.082c-.179.081-.756.211-1.723.406l-.235-.09-3.802.586a.95.95 0 00-.512-.082c-.203.017-.544.09-1.016.22l-1.836.763.138.228c.09-.008.22-.057.374-.146l.65.056-.081.61c-.601.268-.95.666-1.048 1.17-.902.398-1.349.682-1.349.853l.008.105.138-.008.244-.13.284.341.041.472c.016.146-1.503 3.339-4.541 9.578-2.633 6.012-4.014 9.302-4.144 9.895-.901.252-1.421.618-1.576 1.105.017.154.285.26.805.3l.024.236-.236.39.041.471c.024.244.682.431 1.974.561-.008-.081.033-.13.122-.138.024.292-.057.86-.244 1.706l.138-.008c.537-.731.788-1.235.764-1.511l.114-.008c.13-.009.268.138.43.454-.162.066-.73 1.357-1.706 3.884l.138.227.139-.008c1.194-3.022 1.941-4.696 2.25-5.012 1.568-.139 4.281-.415 8.132-.83l.244-.145c.008.081.057.122.146.113l.252-.024.244-.146c.008.081.057.122.146.114l2.916-.252c.772-.065 1.138-.3 1.105-.699-.008-.106.447-.227 1.365-.357.09-.009.22.016.398.073-.008-.073.455-.146 1.382-.228.024-.487.178-.747.454-.772l-.024-.235a4.04 4.04 0 00-.894.203c-.609-.033-.999-.081-1.161-.138-.163.09-.285.138-.374.146l-2.031.065-.244.13c-.008-.073-.057-.105-.146-.097l-.114.008-.26.13c-.008-.073-.22-.13-.642-.187l-.26.154-.503.04-.008-.13c2.616-.284 3.907-.641 3.875-1.063.17-.017.26.064.276.235l.764-.195-.025-.235-6.263.17c.008.081-.033.13-.122.138l-.764-.065a.92.92 0 00-.487.171l-.285-.106c-.788.065-1.373.163-1.763.285-.536-.04-1.129-.033-1.787.024l-1.405.122-.65-.073c-.033-.415.772-2.454 2.429-6.11.48-1.235.918-2.006 1.34-2.299.09-.008.22.025.398.098l1-.341.511.08c.862-.072 1.86-.316 3.006-.739.285-.024.496-.008.65.057l.764-.178 2.275-.195c.966-.082 2.014-.293 3.152-.642l-.025-.236c-.422.041-.641-.032-.657-.203-.025-.317-.334-.447-.927-.398l-.024-.236.625-.178 1.641-.138-.024-.236c-.065.008-.398 0-1.015-.024l-.025-.252.634-.057c.17-.016.244-.098.227-.26-.852.024-1.283-.016-1.291-.13-5.947.292-8.929.35-8.945.162-.09.009-.211.066-.374.163l-.154-.244c1.576-3.347 2.502-5.037 2.77-5.061.008.13-.057.341-.195.626l.008.105.252-.024c.626-1.495 1.154-2.267 1.593-2.3 1.868-.162-.26-.284 3.737-.91.162.074.276.106.357.098 1.568-.317 3.753-.65 6.556-.99l-.016-.237-1.495.139-.016-.236a.808.808 0 00.447-.17l.008.13c.081-.009.195-.066.341-.163.26-.024.455 0 .593.073.52-.138.943-.22 1.251-.252l.934-.09c.228-.145.334-.275.326-.397l-.009-.106a2.95 2.95 0 01-.82-.049c-.008-.13.057-.219.211-.26l1.739-.162.796-.203c.008.09.049.122.114.122.08-.008.195-.065.34-.163.041.008.09.008.13.016a6.5 6.5 0 00-.349.95l-.227.017a.994.994 0 00-.13-.414l-.114.008c-2.112 5.882-3.055 8.62-5.004 13.137-.358 1.153-.658 1.795-.918 1.933.008.13.09.195.227.179.049.569-.08 1.13-.398 1.682-.902 2.6-1.503 4.021-1.812 4.281l.204 1.227c.008.13-.057.203-.195.22l-.212.015c-.032-.34-.154-.503-.373-.479l-.114.008a4.83 4.83 0 00-.625 1.503l.21-.016c.285-.187.415-.406.39-.658l.423-.04.244.088c-.195.31-.285.553-.268.74l.113.195-.276.65.008.105c.244-.024.512.057.796.228.195-.016.407-.106.642-.26.244-.024 1.154-.033 2.722-.033l.788-.268c.959-.008 1.113.017 1.941-.057l.342-.032.178-.122.009.106c.869-.074.926-.017 1.608.065l.008.105-.48.041.017.203a.69.69 0 00.382-.146c.122-.008.195.057.203.203a2.857 2.857 0 00-.658.146l-.211-.073c-.333.09-.26.114-.488.13l-.333-.065c.008.057-.024.097-.08.097.007.13.08.195.202.187l.341-.032 1.78-.155.674-.146c.008.057.032.09.09.081l.324-.121.61-.05c.47-.04.463-.072 1.486-.235-.008-.065.016-.09.065-.097l.008.09c1.666-.285 1.771-.302 2.039-.39l.025.048c.414-.098.179-.073.292-.154.008.073.033.105.073.105l.293-.024-.016-.22-.593-.008-.009-.016c-.024.008-.04.008-.065.016h-.081v.017c-.398.08-.406.024-.666.048l-1.487.082-.008-.106.829-.114.301-.024.17-.122.008.106c1.17-.098 1.584.195 6.995-.959.293-.024.268-.268.455-.772a.504.504 0 01-.284-.065c-.447.17-.683.09-1.544.228-.073.008-.13-.057-.154-.187l-.009-.09.829.025c.155-.016.455-.04.902-.293 0 .073-.171.114-.073.106zm-40.003.642l-.382.032c-.016-.154.187-.74.61-1.738l.251-.025c.008.236-.146.813-.48 1.73zm.463-1.853l-.008-.105c-.008-.13.073-.22.252-.26l.008.105c.008.155-.073.244-.252.26zm5.077 3.924l.009.106-.634.057-.008-.106.633-.057zm-.763-.065c.008.13-.187.277-.61.423l-.78-.057-.251.024-.025-.235 1.666-.155zM77.65 3.298l-.382.033-.008-.13c-.008-.13.065-.22.228-.26l.138-.008.26.105c.008.155-.065.244-.236.26zm5.809-1.137l.122-.008.016.235-.35.033c-.007-.13.058-.22.212-.26zm-1.463.512l-.576-.065-.008-.106c.755-.065 1.007-.146 1.47-.276.008.09.09.122.236.106l.016.235-.227.025a.78.78 0 01-.464-.082.994.994 0 01-.447.163zm.724 2.104l-.008-.106.934-.089.008.106-.934.09zm.999-.812l-.008-.13.455-.041.008.13-.455.04zm.106-1.593l-.122.008.105-.252 1.04-.097.008.13a6.277 6.277 0 00-1.031.211zm.528 2.242l-.017-.235.455-.04c.155-.017.236.056.244.219l-.682.056zM87.107.861l-.585.163-.106.008a5.974 5.974 0 01-1.056-.025c.755-.048 1.479-.105 1.747-.146zm-.626 2.6l.008.105-.804.074-.008-.106.804-.073zm1.316.625c-.008-.097-.162-.162-.479-.195l-.804.228-.618.024c-.138-.097-.211-.162-.22-.21l.716.04L88 3.713l.82.032.009.13c-.406.04-.747.114-1.032.211zm8.279-2.136c.097.008.162.008.187.008.284-.276.6-.496.966-.65-.292 1.284-.747 2.234-1.373 2.852l-.455-.277c.382-.966.61-1.608.675-1.933zm-1.398 2.396l.114-.008c-.154.293-.292.447-.406.455l-.024-.309c.073 0 .178-.048.316-.138zM93.777 6.5c.219-.877.43-1.373.625-1.503l.008.106c-.113.812-.292 1.243-.528 1.275l.04.512c-.194.276-.284.488-.275.65l-.114.008-.065-.707c.13-.016.235-.13.309-.34zm-.35 1.17c.008.122-.073.406-.235.845l-.114.008-.025-.308c.155-.358.285-.537.374-.545zm-6.556 19.027l-.008-.09.211-.016.025.309c-.114.008-.195-.057-.228-.203zm9.367.244c-.008-.074-.04-.106-.114-.098l-.528.049-.008-.106h.049l1.251-.105.008.105c-.365.016-.585.073-.658.155zm-.625-.26c.049.024.024.048 0 .064-.025-.008-.057-.032 0-.064zm.065-1.463l-.7.057-.007-.106.633-.056.553-.138c.008.064.04.089.114.08.658-.113.593-.146.91-.17.105-.008.17.057.178.187l-1.681.146zm2.445-.211c-.39-.04-.414-.073-.69-.049l-.009-.09.626-.056.008.09c-.065.007.17.024.065.105zm.049-.114l-.008-.09.34-.032.009.09-.341.032zm.755-.065l-.008-.09a.591.591 0 00.244-.13c.17-.015.26.098.276.228l-.512-.008zm.967-.122l-.008-.105.414-.033.008.106-.414.032zm.577-.048c-.008-.122.04-.195.146-.212l.138.18c-.008-.058.016-.09.065-.098l.106.195-.455-.065zm7.994-.943l.008-.008v-.008s-.008.008-.008.016zm.146-.105c.065-.041.098-.082-.057-.106-.073.081.082.106-.081.114l.008.073c.016-.016.057-.04.09-.065l-.09.073v.008l-.17.22.341-.122h.04l-.016-.203-.065.008zm.593.463l-.065.008.016.203.48-.04c-.008-.13-.325-.171-.431-.171z" fill="#F9DC3E"/></svg>