<svg width="59" height="89" fill="none" xmlns="http://www.w3.org/2000/svg"><g clip-path="url(#clip0)"><path d="M14.559 88.99c8.038 0 14.558-6.64 14.558-14.825V59.339H14.56C6.52 59.34 0 65.98 0 74.165S6.52 88.99 14.559 88.99z" fill="#0ACF83"/><path d="M0 44.495C0 36.31 6.52 29.67 14.559 29.67h14.558v29.67H14.56C6.52 59.32 0 52.68 0 44.494z" fill="#A259FF"/><path d="M0 14.826C0 6.64 6.52 0 14.559 0h14.558v29.67H14.56C6.52 29.67 0 23.012 0 14.826z" fill="#F24E1E"/><path d="M29.135 0h14.559c8.038 0 14.558 6.64 14.558 14.826S51.732 29.65 43.694 29.65H29.135V0z" fill="#FF7262"/><path d="M58.252 44.495c0 8.186-6.52 14.826-14.558 14.826-8.039 0-14.559-6.64-14.559-14.826s6.52-14.825 14.559-14.825c8.038 0 14.558 6.64 14.558 14.825z" fill="#1ABCFE"/></g><defs><clipPath id="clip0"><path fill="#fff" d="M0 0h58.252v88.991H0z"/></clipPath></defs></svg>