<svg width="58" height="56" fill="none" xmlns="http://www.w3.org/2000/svg"><g clip-path="url(#clip0)" fill="#161614"><path d="M28.763 0C12.88 0 0 12.836 0 28.672 0 41.34 8.242 52.087 19.67 55.878c1.438.266 1.965-.622 1.965-1.38 0-.683-.026-2.941-.039-5.337-8.002 1.734-9.69-3.383-9.69-3.383-1.309-3.314-3.194-4.195-3.194-4.195-2.61-1.78.197-1.743.197-1.743 2.888.202 4.41 2.954 4.41 2.954 2.564 4.384 6.728 3.116 8.37 2.384.257-1.853 1.003-3.118 1.825-3.834-6.388-.725-13.104-3.184-13.104-14.17 0-3.13 1.123-5.688 2.963-7.696-.298-.722-1.283-3.638.279-7.587 0 0 2.415-.77 7.912 2.939 2.294-.636 4.755-.954 7.2-.965 2.444.01 4.906.33 7.205.965 5.49-3.71 7.902-2.94 7.902-2.94 1.566 3.95.58 6.866.282 7.588 1.844 2.008 2.96 4.566 2.96 7.696 0 11.012-6.729 13.437-13.133 14.147 1.031.89 1.95 2.635 1.95 5.31 0 3.836-.033 6.923-.033 7.868 0 .763.518 1.657 1.976 1.375 11.422-3.795 19.653-14.539 19.653-27.202C57.526 12.836 44.648 0 28.763 0z"/><path d="M10.773 40.843c-.063.143-.288.185-.493.088-.209-.094-.326-.288-.258-.431.062-.147.287-.188.495-.089.21.093.328.29.256.432zm1.415 1.259c-.138.127-.406.068-.588-.133-.188-.2-.223-.467-.084-.596.142-.126.402-.067.59.133.188.202.225.468.082.596zm.97 1.61c-.176.122-.464.007-.642-.248-.177-.254-.177-.56.004-.683.178-.122.462-.012.643.24.175.26.175.566-.005.691zm1.642 1.865c-.158.173-.494.126-.74-.11-.25-.231-.32-.56-.163-.733.16-.173.497-.125.745.11.25.23.326.561.158.733zm2.121.63c-.07.224-.393.326-.718.23-.326-.098-.539-.361-.473-.588.068-.226.393-.332.72-.23.326.098.54.359.471.587zm2.415.266c.008.237-.268.433-.61.437-.344.008-.622-.184-.626-.416 0-.24.27-.434.614-.44.342-.006.622.184.622.42zm2.372-.09c.04.23-.197.467-.537.53-.333.06-.642-.081-.685-.31-.042-.237.2-.474.534-.535.34-.059.644.08.688.315z"/></g><defs><clipPath id="clip0"><path fill="#fff" d="M0 0h57.75v56H0z"/></clipPath></defs></svg>