<svg width="100" height="80" fill="none" xmlns="http://www.w3.org/2000/svg"><path d="M0 .417h79.167V78.75H0V.417z" fill="#fff"/><path d="M80 79.167H0V0h80v79.167zM1.502 77.67h76.995V1.496H1.502V77.67z" fill="#24292E"/><path d="M53.578 61.728c1.586 2.59 3.65 4.494 7.3 4.494 3.065 0 5.024-1.533 5.024-3.65 0-2.536-2.012-3.435-5.387-4.911l-1.85-.794c-5.338-2.274-8.885-5.124-8.885-11.148 0-5.549 4.228-9.773 10.836-9.773 4.704 0 8.087 1.637 10.523 5.924l-5.761 3.7c-1.269-2.276-2.637-3.172-4.762-3.172-2.168 0-3.54 1.375-3.54 3.171 0 2.22 1.374 3.118 4.548 4.493l1.85.793c6.287 2.696 9.836 5.444 9.836 11.623 0 6.661-5.232 10.311-12.26 10.311-6.872 0-11.312-3.274-13.484-7.566l6.012-3.495zm26.691 0c1.586 2.59 3.65 4.494 7.3 4.494 3.065 0 5.023-1.533 5.023-3.65 0-2.536-2.011-3.435-5.386-4.911l-1.85-.794c-5.338-2.274-8.885-5.124-8.885-11.148 0-5.549 4.227-9.773 10.836-9.773 4.704 0 8.086 1.637 10.523 5.924l-5.762 3.7c-1.268-2.276-2.636-3.172-4.761-3.172-2.168 0-3.541 1.375-3.541 3.171 0 2.22 1.375 3.118 4.549 4.493l1.85.793C96.451 53.55 100 56.298 100 62.477c0 6.661-5.233 10.311-12.26 10.311-6.872 0-11.312-3.274-13.484-7.566l6.013-3.494zm-52.827.642c1.162 2.062 2.22 3.806 4.761 3.806 2.431 0 3.965-.951 3.965-4.65V36.368h7.398v25.259c0 7.66-4.492 11.148-11.048 11.148-5.925 0-9.355-3.066-11.1-6.758l6.024-3.646z" fill="#24292E"/></svg>