<svg width="56" height="56" fill="none" xmlns="http://www.w3.org/2000/svg"><g clip-path="url(#clip0)"><path d="M28 .001c-15.464 0-28 12.536-28 28s12.536 28 28 28 28-12.536 28-28S43.464 0 28 0zm-7.47 41.537h-6.148V21.676h6.147v19.862zm-3.104-22.463c-2.007 0-3.635-1.64-3.635-3.664 0-2.025 1.628-3.665 3.635-3.665 2.008 0 3.636 1.64 3.636 3.665 0 2.023-1.628 3.664-3.636 3.664zm26.142 22.463H37.45V31.112c0-2.86-1.086-4.456-3.347-4.456-2.46 0-3.746 1.663-3.746 4.456v10.426H24.46V21.676h5.897v2.675s1.773-3.28 5.985-3.28c4.211 0 7.226 2.57 7.226 7.89v12.577z" fill="url(#paint0_linear)"/></g><defs><linearGradient id="paint0_linear" x1="8.201" y1="8.202" x2="47.799" y2="47.8" gradientUnits="userSpaceOnUse"><stop stop-color="#2489BE"/><stop offset="1" stop-color="#0575B3"/></linearGradient><clipPath id="clip0"><path fill="#fff" d="M0 0h56v56H0z"/></clipPath></defs></svg>