<svg width="100" height="21" fill="none" xmlns="http://www.w3.org/2000/svg"><path d="M18.738 20.918c-.565 0-1.12-.22-1.537-.636L4.345 7.424v11.321a2.172 2.172 0 11-4.345 0V2.18A2.173 2.173 0 013.709.642L16.565 13.5V2.18a2.172 2.172 0 114.345 0v16.566a2.174 2.174 0 01-2.172 2.173zM28.798.028l-.597 1.113-4.617 8.391-.596 1.06.596 1.058 4.618 8.12.623 1.113H40.91l.598-1.222 3.448-6.952 1.548-3.15h-3.503l-8.825.027c-1.148-.016-2.204 1.024-2.204 2.172 0 1.148 1.056 2.19 2.204 2.173l5.322-.027-1.303 2.634h-6.844l-3.395-5.975 3.422-6.191h7.28l1.697 3.483h4.373L41.972 1.25 41.374.027H28.799zM50.808 0c-1.139.014-2.16 1.062-2.146 2.2V7.86h4.345V2.2c.014-1.156-1.045-2.215-2.2-2.2zm6.964 20.96a2.173 2.173 0 01-2.172-2.173V2.22a2.172 2.172 0 114.345 0v11.322L72.802.684A2.17 2.17 0 0176.51 2.22v16.567a2.172 2.172 0 11-4.345 0V7.466L59.308 20.323a2.17 2.17 0 01-1.536.636zm34.83-10.473l6.759-6.734A2.173 2.173 0 0096.294.675l-6.768 6.746L82.757.675a2.172 2.172 0 10-3.068 3.079l6.759 6.733-6.738 6.715a2.171 2.171 0 001.533 3.711c.555 0 1.11-.21 1.533-.634l6.75-6.725 6.748 6.725a2.165 2.165 0 001.534.634 2.172 2.172 0 001.534-3.711l-6.74-6.715zm-41.795 10.41c-1.138-.013-2.16-1.061-2.145-2.198V9.603h4.345V18.7c.014 1.154-1.045 2.213-2.2 2.199z" fill="#090"/></svg>