<svg width="100" height="62" fill="none" xmlns="http://www.w3.org/2000/svg"><path d="M49.457 61.234c-.339 0-.655-.09-.95-.248L45.503 59.2c-.453-.249-.226-.34-.09-.384.61-.204.723-.25 1.355-.61.068-.046.159-.023.227.022l2.305 1.379c.09.045.204.045.271 0l9.02-5.222c.09-.045.135-.136.135-.248v-10.42c0-.114-.045-.204-.136-.25L49.57 38.27c-.09-.046-.203-.046-.27 0l-9.02 5.199c-.09.045-.136.158-.136.248v10.42c0 .091.046.204.136.25l2.464 1.423c1.334.678 2.17-.113 2.17-.904V44.62c0-.135.113-.271.271-.271h1.153c.136 0 .271.113.271.271v10.285c0 1.786-.972 2.825-2.667 2.825-.52 0-.927 0-2.08-.565L39.49 55.81a1.908 1.908 0 01-.95-1.65V43.74c0-.678.362-1.311.95-1.65l9.019-5.222a2.018 2.018 0 011.899 0l9.019 5.222c.587.339.95.972.95 1.65v10.42c0 .678-.363 1.311-.95 1.65l-9.02 5.222a2.313 2.313 0 01-.948.203zm2.78-7.165c-3.955 0-4.769-1.809-4.769-3.346 0-.135.113-.27.271-.27h1.176c.136 0 .248.09.248.225.181 1.198.701 1.786 3.097 1.786 1.899 0 2.713-.43 2.713-1.447 0-.588-.226-1.017-3.187-1.31-2.464-.25-4.001-.792-4.001-2.758 0-1.831 1.537-2.916 4.114-2.916 2.893 0 4.317.994 4.498 3.164a.365.365 0 01-.068.203c-.045.046-.113.09-.18.09h-1.176a.265.265 0 01-.249-.203c-.271-1.243-.972-1.65-2.825-1.65-2.08 0-2.329.724-2.329 1.266 0 .656.294.86 3.097 1.22 2.78.363 4.091.882 4.091 2.826-.022 1.99-1.65 3.12-4.52 3.12z" fill="#539E43"/><path d="M21.474 20.48a1.15 1.15 0 00-.588-.995l-9.584-5.516a1.393 1.393 0 00-.52-.158h-.09c-.181 0-.362.068-.52.158L.588 19.485a1.15 1.15 0 00-.588.994l.023 14.828c0 .204.113.407.293.498.181.113.407.113.566 0l5.696-3.255a1.15 1.15 0 00.588-.995v-6.94c0-.406.225-.79.587-.994l2.419-1.401c.18-.113.384-.159.587-.159.204 0 .407.046.566.159l2.418 1.401c.362.204.588.588.588.995v6.94c0 .406.226.79.588.994l5.696 3.255c.18.113.407.113.588 0a.562.562 0 00.294-.498l-.023-14.828zM67.54.067a.621.621 0 00-.566 0 .59.59 0 00-.293.497v14.693a.434.434 0 01-.204.361.433.433 0 01-.406 0l-2.397-1.378a1.165 1.165 0 00-1.152 0l-9.585 5.538a1.15 1.15 0 00-.587.994v11.053c0 .407.226.792.587.995l9.584 5.538a1.165 1.165 0 001.153 0l9.585-5.538a1.15 1.15 0 00.587-.995V4.272c0-.43-.226-.813-.587-1.017L67.54.068zm-.882 28.12c0 .112-.045.203-.136.248l-3.277 1.898a.336.336 0 01-.294 0l-3.277-1.898c-.091-.045-.136-.158-.136-.249V24.39c0-.113.045-.204.136-.249l3.277-1.899a.334.334 0 01.294 0l3.277 1.9c.091.044.136.157.136.248v3.797zm32.776-3.889c.362-.203.565-.587.565-.994v-2.69c0-.407-.226-.791-.565-.995l-9.516-5.515a1.165 1.165 0 00-1.153 0l-9.584 5.538a1.15 1.15 0 00-.588.995V31.69c0 .407.226.79.588.994l9.516 5.425c.362.204.791.204 1.13 0l5.764-3.21a.562.562 0 00.294-.496.562.562 0 00-.294-.498l-9.63-5.538a.589.589 0 01-.293-.497v-3.458c0-.204.113-.407.294-.498l3.006-1.718a.551.551 0 01.588 0l3.006 1.718a.59.59 0 01.294.498v2.712c0 .203.113.407.294.497.18.113.407.113.588 0l5.696-3.323z" fill="#333"/><path d="M89.196 23.78a.205.205 0 01.226 0l1.831 1.062a.237.237 0 01.113.203v2.125c0 .09-.045.158-.113.203l-1.831 1.063a.205.205 0 01-.226 0l-1.83-1.063a.237.237 0 01-.114-.203v-2.125c0-.09.045-.158.113-.203l1.831-1.063z" fill="#539E43"/><mask id="a" maskUnits="userSpaceOnUse" x="26" y="13" width="22" height="26"><path d="M37.5 14.15a1.165 1.165 0 00-1.153 0l-9.516 5.493a1.129 1.129 0 00-.566.994v11.008c0 .407.226.792.566.995l9.516 5.493a1.164 1.164 0 001.152 0l9.517-5.493a1.13 1.13 0 00.565-.995V20.637c0-.406-.226-.79-.565-.994l-9.517-5.493z" fill="#fff"/></mask><g mask="url(#a)"><path d="M37.5 14.15a1.165 1.165 0 00-1.153 0l-9.516 5.493a1.129 1.129 0 00-.566.994v11.008c0 .407.226.792.566.995l9.516 5.493a1.164 1.164 0 001.152 0l9.517-5.493a1.13 1.13 0 00.565-.995V20.637c0-.406-.226-.79-.565-.994l-9.517-5.493z" fill="url(#paint0_linear)"/><path d="M47.039 19.643l-9.562-5.493a1.566 1.566 0 00-.293-.113L26.469 32.392c.089.108.196.2.317.27l9.561 5.494c.271.158.588.203.882.113l10.059-18.4a1.191 1.191 0 00-.25-.226z" fill="url(#paint1_linear)"/><path fill-rule="evenodd" clip-rule="evenodd" d="M47.06 32.64c.271-.158.475-.43.565-.723L37.137 14.014c-.271-.045-.565-.022-.814.136l-9.493 5.47 10.239 18.671c.149-.024.293-.07.43-.135l9.56-5.516h.001z" fill="url(#paint2_linear)"/><path fill-rule="evenodd" clip-rule="evenodd" d="M47.062 32.64l-9.54 5.493a1.36 1.36 0 01-.428.135l.18.34 10.579-6.126v-.136l-.272-.452a1.05 1.05 0 01-.52.746z" fill="url(#paint3_linear)"/><path fill-rule="evenodd" clip-rule="evenodd" d="M47.062 32.64l-9.54 5.493a1.36 1.36 0 01-.428.135l.18.34 10.579-6.126v-.136l-.272-.452a1.05 1.05 0 01-.52.746z" fill="url(#paint4_linear)"/></g><defs><linearGradient id="paint0_linear" x1="40.8" y1="18.245" x2="30.369" y2="34.635" gradientUnits="userSpaceOnUse"><stop stop-color="#41873F"/><stop offset=".329" stop-color="#418B3D"/><stop offset=".635" stop-color="#419637"/><stop offset=".932" stop-color="#3FA92D"/><stop offset="1" stop-color="#3FAE2A"/></linearGradient><linearGradient id="paint1_linear" x1="35.479" y1="27.431" x2="61.602" y2="13.238" gradientUnits="userSpaceOnUse"><stop offset=".138" stop-color="#41873F"/><stop offset=".403" stop-color="#54A044"/><stop offset=".714" stop-color="#66B848"/><stop offset=".908" stop-color="#6CC04A"/></linearGradient><linearGradient id="paint2_linear" x1="25.917" y1="26.142" x2="47.937" y2="26.142" gradientUnits="userSpaceOnUse"><stop offset=".092" stop-color="#6CC04A"/><stop offset=".286" stop-color="#66B848"/><stop offset=".597" stop-color="#54A044"/><stop offset=".862" stop-color="#41873F"/></linearGradient><linearGradient id="paint3_linear" x1="25.919" y1="35.269" x2="47.939" y2="35.269" gradientUnits="userSpaceOnUse"><stop offset=".092" stop-color="#6CC04A"/><stop offset=".286" stop-color="#66B848"/><stop offset=".597" stop-color="#54A044"/><stop offset=".862" stop-color="#41873F"/></linearGradient><linearGradient id="paint4_linear" x1="51.147" y1="17.724" x2="45.568" y2="46.956" gradientUnits="userSpaceOnUse"><stop stop-color="#41873F"/><stop offset=".329" stop-color="#418B3D"/><stop offset=".635" stop-color="#419637"/><stop offset=".932" stop-color="#3FA92D"/><stop offset="1" stop-color="#3FAE2A"/></linearGradient></defs></svg>