<svg width="100" height="62" fill="none" xmlns="http://www.w3.org/2000/svg"><path d="M83.678 19.2c-.156-3.434.313-6.478-1.248-9.054C78.683 3.746 69.317 0 50.585 0v.546h-.39.39V0C31.855 0 22.02 3.746 18.274 10.225c-1.483 2.653-1.327 5.619-1.56 9.053-.157 2.732-1.406 5.62-.86 8.742.625 4.058.86 8.117 1.484 11.863.468 3.044 4.682 5.62 5.073 8.508 1.092 7.96 9.366 11.629 28.098 11.629v.624h-.469H50.586v-.624c18.731 0 26.692-3.668 27.707-11.63.39-2.965 4.293-5.463 4.761-8.507.624-3.746.859-7.805 1.483-11.863.546-3.122-.702-6.088-.859-8.82z" fill="#EFCCA3"/><path d="M50.273 22.01c3.356.078 5.698 2.185 7.883 4.136 2.576 2.264 6.947 3.825 8.742 5.776 1.795 1.951 4.136 3.903 4.995 6.947.858 3.044 1.093 6.946 1.093 7.96 0 1.015.546.781 2.107 0 3.668-1.794 7.727-6.634 7.727-6.634-.468 3.044-4.449 5.776-4.84 8.664-.936 7.96-8.663 11.785-27.785 11.785h-.078.469" fill="#CCAC8D"/><path d="M62.604 15.922c.703 2.42 3.2 10.615-1.639 7.883 0 0 2.03 1.17 3.278 5.62 1.327 4.448 4.527 4.995 4.527 4.995s5.23 1.014 9.132-2.342c3.278-2.81 3.824-7.805 2.42-11.63-1.406-3.745-3.903-4.916-7.571-5.697-3.669-.858-11.005-1.56-10.147 1.171z" fill="#CCAC8D"/><path d="M71.893 31.688a6.868 6.868 0 100-13.737 6.868 6.868 0 000 13.737z" fill="#000"/><path d="M70.098 23.571a1.795 1.795 0 100-3.59 1.795 1.795 0 000 3.59z" fill="#fff"/><path d="M61.434 24.508s6.166 4.214 9.522 8.35c3.356 4.137 3.278 4.918 3.278 4.918l-2.42 1.093s-3.434-6.478-7.649-8.898c-4.292-2.42-4.76-4.449-4.76-4.449l2.029-1.014z" fill="#EFCCA3"/><path d="M50.507 22.01c-3.356.078-5.854 2.185-8.117 4.136-2.576 2.264-7.103 3.825-8.898 5.776-1.795 1.951-4.215 3.903-5.073 6.947-.859 3.044-1.171 6.946-1.171 7.96 0 1.015.156 1.093-2.107 0-3.669-1.717-7.727-6.634-7.727-6.634.468 3.044 4.449 5.776 4.839 8.664 1.093 7.96 8.82 11.785 27.941 11.785h.391" fill="#CCAC8D"/><path d="M68.615 35.2c-3.747-4.605-9.756-8.897-18.108-8.897h-.078c-8.351 0-14.36 4.292-18.107 8.897-3.903 4.761-3.59 6.634-3.59 11.161 0 16.39 5.775 11.708 9.6 13.737 3.902 1.951 7.96 1.327 12.097 1.327h.078c4.215 0 8.196.546 12.098-1.405 3.824-1.951 9.6 2.888 9.6-13.503.078-4.526.312-6.556-3.59-11.317z" fill="#56332B"/><path d="M50.117 30.361s-.546 7.571-1.639 9.054l2.03-.468-.39-8.586z" fill="#442823"/><path d="M50.664 30.361s.546 7.571 1.639 9.054l-2.03-.468.39-8.586z" fill="#442823"/><path d="M44.108 28.566c-.78-1.795 2.029-4.683 6.478-4.761 4.449 0 7.258 2.888 6.478 4.761-.78 1.873-3.59 2.42-6.478 2.498-2.81-.078-5.698-.625-6.478-2.498z" fill="#56332B"/><path d="M50.585 30.361c0-.312 2.653-.39 4.058-1.327 0 0-2.888.937-3.512.547-.624-.313-.78-1.25-.78-1.25s-.235.938-.703 1.25c-.546.312-3.825-.547-3.825-.547s4.371 1.093 4.371 1.327c0 .234-.078 1.015-.078 1.561 0 1.951 0 6.79.313 7.18.468.703.312-5.229.312-7.18-.078-.624-.078-1.249-.156-1.56z" fill="#000"/><path d="M50.74 40.82c1.328 0 3.67.937 5.776 2.42-2.029-2.264-4.448-3.825-5.775-3.825-1.405 0-4.371 1.717-6.478 4.215 2.185-1.717 4.995-2.81 6.478-2.81z" fill="#7F4A41"/><path d="M50.196 54.635c-2.966 0-5.854-.937-8.508-1.64-.546-.155-1.092.235-1.639.079-4.917-1.561-8.897-4.215-11.317-7.571v.78c0 16.39 5.776 11.786 9.6 13.737 3.903 1.951 7.961 1.327 12.098 1.327h.078c4.215 0 8.195.546 12.098-1.405 3.824-1.951 9.6 2.81 9.6-13.58 0-.625 0-1.25.078-1.796-2.264 3.669-6.4 6.556-11.552 8.273-.468.157-1.56-.234-2.029-.156-2.81.937-5.307 1.952-8.507 1.952z" fill="#442823"/><path d="M42.78 45.815s-1.95 5.854-.623 8.43l-1.796-.781s1.327-5.932 2.42-7.649zM58.234 45.815s1.951 5.854.624 8.43l1.796-.781s-1.405-5.932-2.42-7.649z" fill="#442823"/><path d="M37.785 15.922c-.702 2.42-3.2 10.615 1.64 7.883 0 0-2.03 1.17-3.279 5.62-1.248 4.448-4.527 4.995-4.527 4.995s-5.229 1.014-9.131-2.342c-3.278-2.81-3.825-7.805-2.42-11.63 1.405-3.823 3.903-4.916 7.57-5.697 3.67-.858 10.928-1.56 10.147 1.171z" fill="#CCAC8D"/><path d="M50.508 39.415c2.107 0 8.663 4.527 8.741 10.068v-.312c0-5.776-5.307-10.38-8.742-10.38-3.434 0-8.741 4.683-8.741 10.38v.312c.078-5.541 6.634-10.068 8.742-10.068z" fill="#000"/><path d="M52.211 28.608c.334-.086.474-.663.313-1.289-.162-.626-.563-1.064-.897-.978-.334.086-.474.664-.313 1.29.162.626.563 1.064.897.977zM48.199 28.597c.329.102.751-.316.943-.933.191-.618.08-1.201-.25-1.304-.33-.102-.751.316-.943.934-.192.617-.08 1.2.25 1.303z" fill="#331712"/><path d="M28.888 31.688a6.868 6.868 0 100-13.737 6.868 6.868 0 000 13.737z" fill="#000"/><path d="M30.684 23.571a1.795 1.795 0 100-3.59 1.795 1.795 0 000 3.59z" fill="#fff"/><path d="M52.536 24.898c0-.078-1.795.78-2.263.858-.468-.078-2.264-.936-2.264-.858H52.537z" fill="#7F4A41"/><path d="M38.878 24.508s-6.166 4.214-9.522 8.35c-3.356 4.137-3.278 4.918-3.278 4.918l2.42 1.093s3.433-6.478 7.648-8.898 4.761-4.449 4.761-4.449l-2.03-1.014z" fill="#EFCCA3"/><path d="M25.376 12.02s-2.107 5.775-6.79 8.195c0 0 7.336-.859 6.79-8.195zM74.624 12.02s2.107 5.775 6.79 8.195c0 0-7.337-.859-6.79-8.195zM61.278 22.79s-4.605-4.839-10.77-4.995h.077.078c-6.244.156-10.77 4.995-10.77 4.995 5.385-3.746 9.99-3.668 10.77-3.668-.078 0 5.23-.078 10.615 3.669zM55.893 12.644s-2.342-3.278-5.464-3.356h.157c-2.342.078-5.386 3.356-5.386 3.356 2.654-2.576 5.386-2.498 5.386-2.498s2.575-.078 5.307 2.498zM28.887 36.605s-3.668 1.795-6.322.703h-.078C20.145 35.98 18.975 32 18.975 32s2.341 7.025 9.912 4.605zM71.659 36.605s3.668 1.795 6.322.703C81.103 35.98 81.57 32 81.57 32s-2.342 7.025-9.912 4.605z" fill="#CCAC8D"/><path d="M33.102 11.63c2.03-.39 5.386-.469 8.04.39 3.355 1.17.624 5.463 1.326 5.697.703.234 1.64-2.966 7.883-2.653 6.322.312 7.025 3.122 7.883 2.653.859-.468-.858-7.805 8.586-6.088 0 0-9.913-2.653-9.444 4.527 0 0-5.698-4.37-13.659-.468.078 0 2.107-6.712-10.615-4.059zM67.677 11.63c.156 0 .235.077.313.077.078 0-.078-.078-.313-.078zM30.371 2.03s-8.43 10.614-9.678 14.673c-1.249 4.136-2.185 21.073-3.278 23.493l-3.903-16.703 7.18-17.405 9.68-4.059zM70.02 2.03s8.429 10.614 9.678 14.673c1.249 4.136 2.185 21.073 3.278 23.493l3.902-16.703-7.18-17.405-9.678-4.059z" fill="#CCAC8D"/><path d="M69.63 2.03s9.054 7.57 11.707 16.312c2.654 8.741 1.561 19.356 3.59 20.683 2.888 1.873 6.167-9.288 7.26-10.459 1.716-1.873 7.414-6.634 7.804-7.493.39-.858-11.551-13.892-16.78-16.468-6.322-2.966-14.127-3.2-13.581-2.576z" fill="#56332B"/><path d="M77.357 6.712s10.692 13.659 10.536 30.674l4.293-8.742c-.078 0-3.824-11.16-14.83-21.932z" fill="#442823"/><path d="M30.37 2.03S21.318 9.6 18.664 18.341c-2.654 8.741-1.56 19.356-3.59 20.683-2.888 1.873-6.166-9.288-7.259-10.459C6.097 26.693.4 21.932.01 21.073-.38 20.215 11.561 7.181 16.79 4.605c6.322-2.966 14.127-3.2 13.58-2.576z" fill="#56332B"/><path d="M22.644 6.712S11.95 20.371 12.107 37.386l-4.215-8.742s3.747-11.16 14.752-21.932z" fill="#442823"/><path d="M16.869 37.698s.78 4.215 2.029 5.541c1.248 1.327.39-1.014.39-1.014s-1.327-.703-1.093-6.088c.235-5.386-1.326 1.56-1.326 1.56zM83.445 37.698s-.78 4.215-2.03 5.541c-1.249 1.327-.39-1.014-.39-1.014s1.327-.703 1.093-6.088c-.234-5.386 1.327 1.56 1.327 1.56z" fill="#CCAC8D"/><path d="M42.39 35.122a.624.624 0 100-1.248.624.624 0 000 1.248zM38.8 38.869a.624.624 0 100-1.25.624.624 0 000 1.25zM37.63 35.122a.624.624 0 100-1.249.624.624 0 000 1.25zM57.61 35.122a.624.624 0 100-1.249.624.624 0 000 1.25zM61.2 38.869a.624.624 0 100-1.25.624.624 0 000 1.25zM62.371 35.122a.624.624 0 100-1.248.624.624 0 000 1.248z" fill="#442823"/></svg>