<svg width="100" height="89" fill="none" xmlns="http://www.w3.org/2000/svg"><path d="M82.22 28.837a67.088 67.088 0 00-3.219-1.014c.18-.729.345-1.46.498-2.196C81.935 13.8 80.342 4.27 74.9 1.132c-5.216-3.008-13.748.129-22.365 7.627-.849.74-1.679 1.502-2.49 2.285a60.865 60.865 0 00-1.657-1.53C39.36 1.495 30.307-1.883 24.872 1.263c-5.212 3.017-6.755 11.976-4.561 23.186.218 1.11.464 2.214.739 3.312a66.39 66.39 0 00-3.701 1.164C6.76 32.615 0 38.4 0 44.4 0 50.6 7.258 56.815 18.286 60.584c.894.304 1.796.586 2.704.845a65.418 65.418 0 00-.786 3.57c-2.091 11.016-.458 19.762 4.74 22.76 5.369 3.096 14.38-.086 23.154-7.755.693-.607 1.39-1.25 2.087-1.924.877.847 1.779 1.67 2.703 2.467 8.499 7.313 16.892 10.266 22.086 7.26 5.364-3.105 7.107-12.501 4.843-23.933a56.69 56.69 0 00-.6-2.673 58.57 58.57 0 001.86-.58C92.542 56.821 100 50.68 100 44.4c0-6.022-6.98-11.846-17.78-15.564z" fill="#53C1DE"/><path d="M79.733 56.566a55.71 55.71 0 01-1.68.525c-1.266-4.007-2.974-8.267-5.064-12.669 1.995-4.297 3.637-8.502 4.867-12.483 1.023.296 2.016.608 2.973.938 9.254 3.185 14.898 7.895 14.898 11.524 0 3.866-6.096 8.885-15.994 12.165zm-4.108 8.138c1.001 5.055 1.144 9.625.481 13.198-.596 3.21-1.793 5.35-3.274 6.208-3.151 1.824-9.891-.547-17.159-6.802a61.27 61.27 0 01-2.515-2.292c2.818-3.082 5.634-6.665 8.383-10.644 4.834-.428 9.401-1.13 13.543-2.087.204.823.385 1.63.541 2.419zm-41.534 19.09c-3.079 1.088-5.531 1.12-7.013.264-3.155-1.819-4.466-8.842-2.677-18.262a61.19 61.19 0 01.73-3.32c4.096.906 8.63 1.558 13.476 1.95 2.767 3.894 5.664 7.473 8.584 10.606a52.49 52.49 0 01-1.905 1.755c-3.88 3.391-7.768 5.797-11.194 7.008zM19.667 56.543c-4.877-1.667-8.903-3.833-11.664-6.196-2.48-2.124-3.732-4.233-3.732-5.945 0-3.64 5.429-8.285 14.483-11.442a61.624 61.624 0 013.442-1.083c1.252 4.07 2.893 8.326 4.874 12.63-2.007 4.367-3.672 8.69-4.935 12.808a52.674 52.674 0 01-2.468-.772zm4.835-32.914c-1.88-9.605-.631-16.85 2.51-18.668 3.345-1.937 10.743.825 18.54 7.748.498.443.999.906 1.5 1.385-2.905 3.12-5.776 6.672-8.519 10.542-4.703.436-9.205 1.136-13.344 2.074a62.708 62.708 0 01-.687-3.081zM67.637 34.28a135.864 135.864 0 00-3.04-5c3.19.402 6.247.938 9.118 1.593a91.144 91.144 0 01-3.201 8.611 149.105 149.105 0 00-2.877-5.204zm-17.59-17.133c1.97 2.134 3.944 4.518 5.885 7.104a125.78 125.78 0 00-11.82-.003 94.173 94.173 0 015.935-7.1zM32.343 34.31a126.132 126.132 0 00-2.822 5.171 94.27 94.27 0 01-3.178-8.653 96.392 96.392 0 019.066-1.557 125.556 125.556 0 00-3.066 5.039zM35.5 59.837c-3.275-.366-6.363-.86-9.216-1.482a95.777 95.777 0 013.242-8.828 125.523 125.523 0 005.974 10.31zm14.665 12.121a96.028 96.028 0 01-6.017-7.2c1.915.075 3.867.113 5.851.113 2.038 0 4.053-.045 6.036-.134-1.947 2.647-3.913 5.067-5.87 7.221zm20.39-22.584c1.336 3.046 2.463 5.994 3.358 8.796-2.9.662-6.03 1.195-9.328 1.59a149.376 149.376 0 003.07-5.088 135.755 135.755 0 002.9-5.298zm-6.601 3.164a140.024 140.024 0 01-4.797 7.74c-2.967.212-6.033.322-9.158.322-3.112 0-6.139-.097-9.054-.286a121.116 121.116 0 01-9.153-15.81 121.178 121.178 0 014.253-8.062v.001a120.017 120.017 0 014.849-7.719 120.992 120.992 0 0118.228.003 128.632 128.632 0 014.818 7.693 139.975 139.975 0 014.311 8.023 128.67 128.67 0 01-4.297 8.095zm8.813-47.705c3.348 1.931 4.65 9.72 2.547 19.932a56.52 56.52 0 01-.45 1.988c-4.149-.957-8.654-1.67-13.37-2.112-2.749-3.913-5.596-7.47-8.454-10.55a62.737 62.737 0 012.3-2.11c7.383-6.424 14.283-8.961 17.427-7.148z" fill="#fff"/><path d="M50 35.472a8.93 8.93 0 018.93 8.93 8.93 8.93 0 11-17.859 0 8.93 8.93 0 018.93-8.93z" fill="#53C1DE"/></svg>