<svg width="100" height="55" fill="none" xmlns="http://www.w3.org/2000/svg"><path d="M74.345 35.631c-1.885.615-3.912.804-5.881 1.15-.536.093-1.102.01-1.643.084-4.2.583-5.788 2.266-6.38 6.738-.317 2.381-.943 4.644-2.31 6.67-2.308 3.422-6.793 4.974-10.631 3.638-4.11-1.431-6.598-5.176-6.266-9.428.3-3.831 3.325-7.216 7.574-8.2 1.99-.46 4.055-.64 6.096-.826 3.81-.346 5.494-2.017 6.129-5.764.365-2.156.04-4.19-.439-6.224-.73-3.108-2.993-4.552-6.793-4.828-2.073-.152-4.183-.452-6.167-1.048-4.176-1.256-6.608-4.882-6.415-9.136.168-3.725 3.202-7.351 6.845-8.184 4.316-.987 8.614.74 10.45 4.583.963 2.018 1.492 4.303 1.869 6.526.675 3.986 2.26 5.532 6.235 5.964 2.571.28 5.191.599 7.643 1.366 3.724 1.165 5.96 4.635 5.96 8.492 0 3.772-2.31 7.263-5.876 8.427z" fill="#62DAFB"/><path d="M30.497 36.244c-4.991 0-9.066-4.074-9.067-9.064 0-4.991 4.073-9.067 9.064-9.068 4.991 0 9.066 4.074 9.067 9.064 0 4.991-4.073 9.067-9.064 9.068zM9.035 54.376C4.048 54.364-.012 50.276 0 45.28c.013-4.987 4.1-9.048 9.095-9.035 4.988.012 9.048 4.1 9.036 9.096-.013 4.987-4.1 9.047-9.096 9.035zm81.967 0c-5 .029-9.105-4.016-9.133-8.997-.029-5 4.015-9.106 8.997-9.134 5-.029 9.105 4.015 9.134 8.997.028 5-4.016 9.105-8.998 9.134z" fill="#424242"/></svg>