<svg width="100" height="95" fill="none" xmlns="http://www.w3.org/2000/svg"><path d="M69.29 66.302c3.69-.382 6.49-3.563 6.362-7.381-.127-3.818-3.309-6.872-7.126-6.872h-.254c-3.946.127-7 3.436-6.872 7.38.127 1.91.89 3.564 2.035 4.71C59.11 72.664 52.492 78.9 42.566 84.117c-6.745 3.563-13.743 4.836-20.742 3.945-5.727-.764-10.18-3.308-12.98-7.508C4.77 74.319 4.39 67.575 7.825 60.83c2.418-4.836 6.235-8.4 8.653-10.181-.51-1.654-1.273-4.454-1.654-6.49C-3.627 57.52-1.718 75.592 3.88 84.118c4.2 6.363 12.725 10.308 22.142 10.308 2.545 0 5.09-.255 7.635-.89 16.289-3.182 28.633-12.854 35.631-27.234zm22.396-15.78C82.015 39.196 67.762 32.96 51.474 32.96h-2.036c-1.145-2.29-3.563-3.818-6.236-3.818h-.254c-3.945.128-6.999 3.436-6.872 7.381.127 3.818 3.309 6.872 7.126 6.872h.255c2.8-.127 5.217-1.909 6.235-4.327h2.29c9.672 0 18.834 2.8 27.106 8.272 6.363 4.2 10.944 9.672 13.489 16.29 2.163 5.344 2.036 10.562-.255 15.016-3.563 6.745-9.544 10.435-17.433 10.435-5.09 0-9.926-1.527-12.471-2.672-1.4 1.272-3.945 3.308-5.727 4.581 5.472 2.545 11.072 3.945 16.416 3.945 12.216 0 21.252-6.745 24.688-13.49 3.69-7.38 3.435-20.106-6.109-30.923zM27.041 68.465c.127 3.818 3.309 6.872 7.126 6.872h.255c3.945-.127 6.999-3.436 6.871-7.381-.127-3.818-3.308-6.872-7.126-6.872h-.254c-.255 0-.637 0-.89.127-5.218-8.654-7.382-18.07-6.618-28.251.509-7.636 3.054-14.253 7.508-19.726 3.69-4.708 10.816-6.999 15.652-7.126 13.489-.254 19.215 16.543 19.597 23.288 1.654.382 4.454 1.273 6.363 1.91C73.998 10.69 61.272 0 49.056 0 37.603 0 27.041 8.272 22.841 20.489c-5.853 16.289-2.036 31.941 5.09 44.285-.635.891-1.017 2.291-.89 3.691z" fill="#764ABC"/></svg>