<svg width="100" height="61" fill="none" xmlns="http://www.w3.org/2000/svg"><path d="M53.6 21.965a4.13 4.13 0 016.202-3.575c3.742-1.373 7.91-2.092 12.243-2.092 11.605 0 21.558 5.183 24.922 12.641-.029 1.766-2.537 2.589-3.538 1.505C90.67 24.453 81.955 20.14 72.045 20.14c-3.602 0-7.058.55-10.189 1.6a4.132 4.132 0 01-7.931 1.833 4.13 4.13 0 01-.324-1.608zm46.4 15.37a4.135 4.135 0 00-3.545-4.092 4.13 4.13 0 00-3.828 6.65c-1.32 2.03-3.37 3.867-5.999 5.343-4.059 2.276-9.237 3.53-14.584 3.53-4.63 0-9.075-.917-12.859-2.654-2.556-1.174-4.682-2.657-6.271-4.364-1.054-.613-3.489 1.344-2.606 2.836 4.772 4.963 12.865 8.026 21.736 8.026 5.994 0 11.841-1.428 16.465-4.023 3.388-1.901 6.018-4.363 7.672-7.133A4.134 4.134 0 00100 37.335z" fill="#89D96D"/><path d="M20.412 45.088c-3.768-4.885-5.902-11.778-5.902-19.221 0-6.774 1.787-13.166 5.03-18.002C22.94 2.792 27.54 0 32.49 0 37 0 41.303 2.378 44.603 6.694c3.115 4.077 5.143 9.637 5.705 15.66a39.833 39.833 0 00-4.13-1.98c-1.598-9.575-7.233-16.531-13.69-16.531-3.628 0-7.095 2.188-9.76 6.163-2.822 4.209-4.378 9.843-4.378 15.862 0 6.618 1.956 12.9 5.276 17.092a4.132 4.132 0 11-3.215 2.128zm29.394-20.37c-6.745-3.895-14.27-5.441-20.5-4.355a4.13 4.13 0 101.169 3.693c5.242-.774 11.606.638 17.409 3.99 7.087 4.09 12.1 10.442 13.08 16.33 1.222.51 2.556.948 4 1.287-.376-7.65-6.246-15.802-15.158-20.945zm1.018 31.843c-3.72.473-7.94-.118-12.09-1.67a39.535 39.535 0 01-3.78 2.583c4.408 2.024 9.026 3.087 13.31 3.087a24.18 24.18 0 003.048-.188c5.13-.651 9.196-2.966 11.534-6.542a35.509 35.509 0 01-3.905-1.187c-1.8 2.099-4.619 3.472-8.117 3.917zm-4.113-15.096a4.13 4.13 0 10-3.428-1.761c-.786 1.89-1.939 3.782-3.408 5.584-2.273 2.786-5.261 5.292-8.641 7.244-4.72 2.727-9.802 4.19-14.477 4.189-.487 0-.972-.016-1.45-.048-4.775-.32-8.402-2.228-10.217-5.37-3.217-5.572-.01-13.952 7.468-20.115a39.504 39.504 0 01-.335-4.134l-.212-.295c-4.87 3.502-8.616 8.022-10.549 12.723-2.048 4.982-1.941 9.862.3 13.742 2.475 4.285 7.194 6.874 13.287 7.283.56.037 1.125.056 1.696.056 5.347 0 11.108-1.642 16.41-4.703 6.318-3.647 11.17-8.855 13.556-14.395z" fill="#999"/></svg>