<svg width="100" height="96" fill="none" xmlns="http://www.w3.org/2000/svg"><g clip-path="url(#clip0)"><path d="M50 0l44.192 23.95v47.9L50 95.8 5.808 71.85v-47.9L50 0z" fill="#fff"/><path d="M86.3 70.197l-34.842 18.88V74.374l21.709-11.44L86.3 70.197zm2.383-2.067V28.644l-12.75 7.05v25.378l12.75 7.058zm-75.125 2.067L48.4 89.077V74.374l-21.708-11.44-13.134 7.264zm-2.383-2.067V28.644l12.75 7.05v25.378l-12.75 7.058zm1.492-42.04L48.4 6.722V20.94L25.508 33.003l-.175.096-12.666-7.01zm74.525 0L51.458 6.722V20.94L74.35 33.003l.175.096 12.667-7.01z" fill="#8ED6FB"/><path d="M48.4 71.028l-21.416-11.28V37.393L48.4 49.24v21.787zm3.059 0l21.416-11.28V37.393L51.46 49.24v21.787zm-23.025-36.22l21.5-11.33 21.5 11.33-21.5 11.894-21.5-11.895z" fill="#1C78C0"/></g><defs><clipPath id="clip0"><path fill="#fff" d="M0 0h100v95.8H0z"/></clipPath></defs></svg>